<?xml version="1.0" encoding="utf-8"?>
<!-- Generator: Adobe Illustrator 16.0.0, SVG Export Plug-In . SVG Version: 6.00 Build 0)  -->
<!DOCTYPE svg PUBLIC "-//W3C//DTD SVG 1.1//EN" "http://www.w3.org/Graphics/SVG/1.1/DTD/svg11.dtd">
<svg version="1.1" id="Layer_1" xmlns="http://www.w3.org/2000/svg" xmlns:xlink="http://www.w3.org/1999/xlink" x="0px" y="0px"
	 width="58.5px" height="64.541px" viewBox="0.505 0 58.5 64.541" enable-background="new 0.505 0 58.5 64.541"
	 xml:space="preserve">
<image display="none" overflow="visible" enable-background="new    " width="512" height="512" xlink:href="C:\Users\Alex\Downloads\clear-filter.png"  transform="matrix(0.1543 0 0 0.1543 -2.4482 1.4004)">
</image>
<g>
	<g id="Layer_2">
		<g>
			<path fill="#198754" d="M22.089,32.866l0.987,1.086c0,0,0.459,0.474,0.459,0.985v27.854c0,0,0.083,1.699,2.117,1.699
				c0,0,0.706,0.043,1.787-1.41l7.479-8.601c0,0,0.917-0.917,0.917-2.368V35.196c0,0,0.207-1.244,1.121-2.156l21.15-22.897
				c0,0,1.705-1.581,0.416-3.616c0,0-0.457-0.959-1.869-1.145l-6.232,0.001"/>
			<path fill="#198754" d="M41.096,5.384H2.716c0,0-2.949,0.563-2.035,3.969l17.441,19.273"/>
		</g>
	</g>
	
		<line fill="none" stroke="#ED1C24" stroke-width="5" stroke-linecap="round" stroke-miterlimit="10" x1="13.588" y1="31.689" x2="43.255" y2="2.55"/>
</g>
</svg>
