<?xml version="1.0" encoding="utf-8"?>
<!-- Generator: Adobe Illustrator 27.5.0, SVG Export Plug-In . SVG Version: 6.00 Build 0)  -->
<svg version="1.1" id="Layer_1" xmlns="http://www.w3.org/2000/svg" xmlns:xlink="http://www.w3.org/1999/xlink" x="0px" y="0px"
	 viewBox="0 0 72 72" style="enable-background:new 0 0 72 72;" xml:space="preserve">
<style type="text/css">
	.st0{display:none;}
	.st1{display:inline;}
	.st2{fill:#2A3042;}
	.st3{fill:#ED1C24;}
	.st4{display:inline;fill:#2A3042;}
	.st5{display:none;fill:#2A3042;}
</style>
<g id="Layer_1_00000062910776969905921780000001811433286938372286_" class="st0">
	<g class="st1">
		<g>
			<g>
				<path class="st2" d="M27.3,60.4c-1.2,0-2.2-1-2.2-2.2V29.4c0-1.2,1-2.2,2.2-2.2s2.2,1,2.2,2.2v28.9
					C29.5,59.5,28.5,60.4,27.3,60.4z"/>
			</g>
			<g>
				<path class="st2" d="M36,60.4c-1.2,0-2.2-1-2.2-2.2V29.4c0-1.2,1-2.2,2.2-2.2s2.2,1,2.2,2.2v28.9C38.2,59.5,37.2,60.4,36,60.4z"
					/>
			</g>
			<g>
				<path class="st2" d="M44.7,60.4c-1.2,0-2.2-1-2.2-2.2V29.4c0-1.2,1-2.2,2.2-2.2s2.2,1,2.2,2.2v28.9
					C46.8,59.5,45.9,60.4,44.7,60.4z"/>
			</g>
		</g>
		<path class="st2" d="M59.8,6.7H43.5V5.1c0-2.8-2.3-5.1-5.1-5.1h-4.9c-2.8,0-5.1,2.3-5.1,5.1v1.6H12.2c-2.7,0-5,2.2-5,5V15
			c0,2.4,1.6,4.3,3.8,4.8l3,47.6l0,0.1c0.3,2.5,2.5,4.4,5,4.4h33.6c2.5,0,4.7-1.9,5-4.4l0-0.1l3-47.7c2.2-0.5,3.8-2.5,3.8-4.8v-3.4
			C64.7,8.9,62.5,6.7,59.8,6.7z M32.8,5.1c0-0.4,0.3-0.7,0.7-0.7h4.9c0.4,0,0.7,0.3,0.7,0.7v1.6h-6.3C32.8,6.7,32.8,5.1,32.8,5.1z
			 M11.6,11.6c0-0.4,0.3-0.6,0.6-0.6h47.5c0.3,0,0.6,0.3,0.6,0.6V15c0,0.4-0.3,0.6-0.6,0.6H12.2c-0.4,0-0.6-0.3-0.6-0.6V11.6z
			 M53.5,67.1c-0.1,0.3-0.4,0.6-0.7,0.6H19.2c-0.4,0-0.6-0.2-0.7-0.6l-3-47.1h41.1L53.5,67.1z"/>
	</g>
	<path class="st2" d="M56.6,43.1H44.4V2.7c0-1.5-1.2-2.7-2.7-2.7H30.3c-1.5,0-2.7,1.2-2.7,2.7v40.4H15.4c-3.8,0-1.9,3.8-1.9,3.8
		l20.6,24.3c1.9,1.9,3.8,0,3.8,0l20.6-24.3C60.3,43.1,56.6,43.1,56.6,43.1z"/>
	<path class="st2" d="M56.6,28.9H44.4v40.4c0,1.5-1.2,2.7-2.7,2.7H30.3c-1.5,0-2.7-1.2-2.7-2.7V28.9H15.4c-3.8,0-1.9-3.8-1.9-3.8
		L34.1,0.8c1.9-1.9,3.8,0,3.8,0l20.6,24.4C60.3,28.9,56.6,28.9,56.6,28.9z"/>
	<path class="st2" d="M68.3,29H42.9V6.9C43,3.1,39.8,0,36,0s-7,3.1-7,6.9V29H3.7c-2,0-3.7,1.6-3.7,3.7v6.6c0,2,1.6,3.7,3.7,3.7H29
		V65c0,3.8,3.1,6.9,7,6.9s7-3.1,7-6.9V42.9h25.4c2,0,3.7-1.6,3.7-3.7v-6.6C72,30.7,70.4,29,68.3,29z"/>
</g>
<g id="Layer_2_00000005263883002487899320000002842207619645629340_" class="st0">
	<g class="st1">
		<g id="Layer_2_00000015347079766629603900000013217090662010680498_">
			<g>
				<path class="st2" d="M27.6,37.3l1.1,1.2c0,0,0.5,0.5,0.5,1.1v30.5c0,0,0.1,1.9,2.3,1.9c0,0,0.8,0.1,2-1.5l8.2-9.4c0,0,1-1,1-2.6
					V39.8c0,0,0.2-1.4,1.2-2.4L67,12.4c0,0,1.9-1.7,0.5-4c0,0-0.5-1.1-2.1-1.2h-6.8"/>
				<path class="st2" d="M48.4,7.2h-42c0,0-3.2,0.6-2.2,4.3l19.1,21.1"/>
			</g>
		</g>
		<path class="st3" d="M52.2,4.1L19.7,36.7c-0.9,0.9-2.4,0.9-3.4,0l0,0c-0.9-0.9-0.9-2.4,0-3.4L48.9,0.8c0.9-0.9,2.4-0.9,3.4,0l0,0
			C53.2,1.7,53.2,3.2,52.2,4.1z"/>
	</g>
</g>
<g id="Layer_3" class="st0">
	<path class="st4" d="M70.5,5.8L44.8,33.7c-1.1,1.1-1.4,2.6-1.4,2.6v20.6c0,1.8-1.1,2.9-1.1,2.9l-9.1,10.5C31.9,72.1,31,72,31,72
		c-2.5,0-2.6-2.1-2.6-2.1V36c0-0.6-0.6-1.2-0.6-1.2l-1.2-1.3l0,0L0.6,4.8C-0.5,0.7,3.1,0,3.1,0H49h19.8C70.5,0.2,71,1.4,71,1.4
		C72.6,3.9,70.5,5.8,70.5,5.8z"/>
</g>
<g id="Layer_4" class="st0">
	<g class="st1">
		<path class="st2" d="M18,66.7c0,2.9-2.2,5.3-5,5.3s-5-2.4-5-5.3V5.3c0-3,2.2-5.3,5-5.3s5,2.4,5,5.3V66.7z"/>
		<path class="st2" d="M41,66.7c0,2.9-2.2,5.3-5,5.3s-5-2.4-5-5.3V5.3c0-3,2.2-5.3,5-5.3s5,2.4,5,5.3V66.7z"/>
		<path class="st2" d="M64,66.7c0,2.9-2.2,5.3-5,5.3s-5-2.4-5-5.3V5.3c0-3,2.2-5.3,5-5.3s5,2.4,5,5.3V66.7z"/>
	</g>
</g>
<g id="Layer_1_00000083046828544524599500000000795752767301685689_">
	<path class="st5" d="M56.6,43.1H44.4V2.7c0-1.5-1.2-2.7-2.7-2.7H30.3c-1.5,0-2.7,1.2-2.7,2.7v40.4H15.4c-3.8,0-1.9,3.8-1.9,3.8
		l20.6,24.3c1.9,1.9,3.8,0,3.8,0l20.6-24.3C60.3,43.1,56.6,43.1,56.6,43.1z"/>
	<path class="st5" d="M56.6,28.9H44.4v40.4c0,1.5-1.2,2.7-2.7,2.7H30.3c-1.5,0-2.7-1.2-2.7-2.7V28.9H15.4c-3.8,0-1.9-3.8-1.9-3.8
		L34.1,0.8c1.9-1.9,3.8,0,3.8,0l20.6,24.4C60.3,28.9,56.6,28.9,56.6,28.9z"/>
	<path class="st5" d="M68.3,29H42.9V6.9C43,3.1,39.8,0,36,0s-7,3.1-7,6.9V29H3.7c-2,0-3.7,1.6-3.7,3.7v6.6c0,2,1.6,3.7,3.7,3.7H29
		V65c0,3.8,3.1,6.9,7,6.9s7-3.1,7-6.9V42.9h25.4c2,0,3.7-1.6,3.7-3.7v-6.6C72,30.7,70.4,29,68.3,29z"/>
	<g id="icon_00000100356300776542760720000017902060551684135815_">
		<path class="st2" d="M59,20.2H13c-0.8,0-1.6,0.3-2.1,0.9c-0.5,0.6-0.8,1.4-0.8,2.2l3.3,46.1c0.1,1.5,1.4,2.7,2.9,2.7h39.4
			c1.5,0,2.7-1.2,2.9-2.7l3.3-46.1c0.1-0.8-0.2-1.6-0.8-2.2C60.6,20.5,59.8,20.2,59,20.2z"/>
		<path class="st2" d="M62.4,10.2H47.3V6.5c0-3.6-2.9-6.5-6.5-6.5h-9.5c-3.6,0-6.5,2.9-6.5,6.5v3.7H9.6c-1.6,0-2.9,1.3-2.9,2.9
			S8.1,16,9.6,16h18h16.8h17.9c1.6,0,2.9-1.3,2.9-2.9S63.9,10.2,62.4,10.2z M41.5,10.2H30.5V6.5c0-0.4,0.4-0.8,0.8-0.8h9.5
			c0.4,0,0.8,0.4,0.8,0.8V10.2z"/>
	</g>
</g>
</svg>
