<?xml version="1.0" encoding="utf-8"?>
<!-- Generator: Adobe Illustrator 16.0.0, SVG Export Plug-In . SVG Version: 6.00 Build 0)  -->
<!DOCTYPE svg PUBLIC "-//W3C//DTD SVG 1.1//EN" "http://www.w3.org/Graphics/SVG/1.1/DTD/svg11.dtd">
<svg version="1.1" id="Layer_1" xmlns="http://www.w3.org/2000/svg" xmlns:xlink="http://www.w3.org/1999/xlink" x="0px" y="0px"
	 width="58.499px" height="59.104px" viewBox="0.506 10.245 58.499 59.104" enable-background="new 0.506 10.245 58.499 59.104"
	 xml:space="preserve">
<image display="none" overflow="visible" enable-background="new    " width="512" height="512" xlink:href="C:\Users\Alex\Downloads\clear-filter.png"  transform="matrix(0.1543 0 0 0.1543 -2.4482 1.4009)">
</image>
<path fill="#198754" d="M58.522,11.388c0,0-0.457-0.959-1.869-1.145l-16.232,0.001H2.716c0,0-2.949,0.563-2.035,3.969l21.408,23.514
	l0,0l0.987,1.085c0,0,0.459,0.474,0.459,0.986v27.854c0,0,0.083,1.699,2.118,1.699c0,0,0.705,0.044,1.786-1.409l7.479-8.601
	c0,0,0.917-0.917,0.917-2.369V40.058c0,0,0.207-1.245,1.121-2.157l21.15-22.897C58.106,15.003,59.812,13.423,58.522,11.388z"/>
</svg>
