<?xml version="1.0" encoding="utf-8"?>
<!-- Generator: Adobe Illustrator 16.0.0, SVG Export Plug-In . SVG Version: 6.00 Build 0)  -->
<!DOCTYPE svg PUBLIC "-//W3C//DTD SVG 1.1//EN" "http://www.w3.org/Graphics/SVG/1.1/DTD/svg11.dtd">
<svg version="1.1" id="Layer_1" xmlns="http://www.w3.org/2000/svg" xmlns:xlink="http://www.w3.org/1999/xlink" x="0px" y="0px"
	 width="66.828px" height="67.875px" viewBox="0 0 66.828 67.875" enable-background="new 0 0 66.828 67.875" xml:space="preserve">
<image display="none" overflow="visible" width="512" height="512" xlink:href="C:\Users\Alex\Downloads\clear-filter.png"  transform="matrix(0.1543 0 0 0.1543 1.21 0.4165)">
</image>
<g>
	<path fill="#198754" d="M33.415,54.23c-2.443,0-4.776-0.456-6.947-1.251v0.576c0,1.659,1.045,2.706,1.045,2.706l8.543,9.824
		c1.234,1.663,2.042,1.613,2.042,1.613c2.325,0,2.421-1.944,2.421-1.944V52.922C38.304,53.754,35.917,54.23,33.415,54.23z"/>
	<path fill="#198754" d="M64.3,0.176H2.686C1.073,0.388,0.55,1.482,0.55,1.482c-1.472,2.325,0.475,4.129,0.475,4.129l15.623,16.914
		c3.657-5.356,9.806-8.88,16.767-8.88c7.023,0,13.22,3.587,16.863,9.022L66.626,4.71C67.671,0.817,64.3,0.176,64.3,0.176z"/>
</g>
<g>
	<g>
		<path fill="none" stroke="#D24A43" stroke-width="1.5" stroke-miterlimit="10" d="M33.415,15.515
			c-10.159,0-18.422,8.264-18.422,18.424c0,10.157,8.264,18.422,18.422,18.422c10.161,0,18.421-8.265,18.421-18.422
			C51.835,23.779,43.576,15.515,33.415,15.515z"/>
	</g>
	<g>
		<path fill="#ED1C24" d="M37.437,33.938l6.299-6.299c1.123-1.124,1.123-2.948,0-4.072c-1.124-1.123-2.947-1.123-4.069,0
			l-6.302,6.298l-6.298-6.298c-1.124-1.123-2.944-1.123-4.07,0c-1.124,1.125-1.124,2.948,0,4.072l6.299,6.299l-6.299,6.299
			c-1.124,1.124-1.124,2.944,0,4.071c0.564,0.562,1.3,0.844,2.038,0.844c0.739,0,1.473-0.285,2.034-0.844l6.301-6.298l6.298,6.298
			c0.562,0.562,1.301,0.844,2.035,0.844c0.737,0,1.474-0.285,2.037-0.844c1.124-1.127,1.124-2.947,0-4.071L37.437,33.938z"/>
	</g>
</g>
</svg>
