<?xml version="1.0" encoding="utf-8"?>
<!-- Generator: Adobe Illustrator 16.0.0, SVG Export Plug-In . SVG Version: 6.00 Build 0)  -->
<!DOCTYPE svg PUBLIC "-//W3C//DTD SVG 1.1//EN" "http://www.w3.org/Graphics/SVG/1.1/DTD/svg11.dtd">
<svg version="1.1" id="Layer_1" xmlns="http://www.w3.org/2000/svg" xmlns:xlink="http://www.w3.org/1999/xlink" x="0px" y="0px"
	 width="70.074px" height="71.202px" viewBox="0 0 70.074 71.202" enable-background="new 0 0 70.074 71.202" xml:space="preserve">
<g>
	<path fill="#198754" d="M67.542,0.072H2.701C1.002,0.294,0.453,1.447,0.453,1.447c-1.549,2.447,0.499,4.346,0.499,4.346
		l25.427,27.525c1.1,1.099,1.35,2.597,1.35,2.597v20.332c0,1.747,1.1,2.848,1.1,2.848l8.99,10.339
		c1.299,1.75,2.148,1.697,2.148,1.697c2.447,0,2.549-2.046,2.549-2.046V52.72c-6.822-2.699-11.668-9.348-11.668-17.118
		c0-10.157,8.262-18.419,18.418-18.419c2.815,0,5.474,0.653,7.861,1.787L69.988,4.843C71.089,0.747,67.542,0.072,67.542,0.072z"/>
	<g>
		<path fill="#D24A43" d="M49.265,18.308c-9.536,0-17.293,7.758-17.293,17.294c0,9.534,7.757,17.292,17.293,17.292
			c9.537,0,17.29-7.758,17.29-17.292C66.555,26.066,58.802,18.308,49.265,18.308z"/>
	</g>
	<g>
		<path fill="#FFFFFF" d="M53.041,35.601l5.911-5.912c1.055-1.056,1.055-2.768,0-3.823c-1.054-1.054-2.766-1.054-3.818,0
			l-5.916,5.912l-5.911-5.912c-1.055-1.054-2.765-1.054-3.821,0c-1.054,1.056-1.054,2.768,0,3.823l5.912,5.912l-5.912,5.912
			c-1.054,1.056-1.054,2.764,0,3.821c0.529,0.528,1.221,0.792,1.913,0.792s1.382-0.267,1.91-0.792l5.913-5.911l5.912,5.911
			c0.527,0.528,1.221,0.792,1.911,0.792c0.691,0,1.383-0.267,1.912-0.792c1.055-1.058,1.055-2.766,0-3.821L53.041,35.601z"/>
	</g>
</g>
<g display="none">
	<path display="inline" fill="none" stroke="#198754" stroke-width="3" stroke-miterlimit="10" d="M56.123,19.726L68.399,6.242
		c1.051-3.91-2.334-4.555-2.334-4.555H4.171C2.55,1.9,2.025,3,2.025,3C0.547,5.335,2.501,7.148,2.501,7.148l24.271,26.273
		c1.05,1.048,1.289,2.478,1.289,2.478v19.409c0,1.668,1.049,2.717,1.049,2.717l8.582,9.871c1.239,1.67,2.051,1.619,2.051,1.619
		c2.336,0,2.433-1.953,2.433-1.953V51.943"/>
	<g display="inline">
		<path fill="#D24A43" d="M48.619,19.778c-8.727,0-15.823,7.098-15.823,15.823c0,8.725,7.097,15.822,15.823,15.822
			S64.44,44.326,64.44,35.601C64.44,26.875,57.345,19.778,48.619,19.778z"/>
	</g>
	<g display="inline">
		<path fill="#FFFFFF" d="M52.073,35.601l5.409-5.409c0.965-0.966,0.965-2.533,0-3.499c-0.965-0.965-2.531-0.965-3.493,0
			l-5.414,5.409l-5.408-5.409c-0.966-0.965-2.53-0.965-3.497,0c-0.965,0.966-0.965,2.533,0,3.499l5.409,5.409l-5.409,5.408
			c-0.965,0.969-0.965,2.531,0,3.498c0.484,0.482,1.116,0.725,1.75,0.725s1.265-0.244,1.749-0.725l5.409-5.408l5.411,5.408
			c0.481,0.482,1.116,0.725,1.748,0.725s1.265-0.244,1.749-0.725c0.966-0.967,0.966-2.529,0-3.498L52.073,35.601z"/>
	</g>
</g>
<image display="none" overflow="visible" width="512" height="512" xlink:href="C:\Users\Alex\Downloads\clear-filter.png"  transform="matrix(0.1543 0 0 0.1543 2.833 1.833)">
</image>
</svg>
