<?xml version="1.0" encoding="utf-8"?>
<!-- Generator: Adobe Illustrator 16.0.0, SVG Export Plug-In . SVG Version: 6.00 Build 0)  -->
<!DOCTYPE svg PUBLIC "-//W3C//DTD SVG 1.1//EN" "http://www.w3.org/Graphics/SVG/1.1/DTD/svg11.dtd">
<svg version="1.1" id="Layer_1" xmlns="http://www.w3.org/2000/svg" xmlns:xlink="http://www.w3.org/1999/xlink" x="0px" y="0px"
	 width="58.5px" height="64.541px" viewBox="0.505 0 58.5 64.541" enable-background="new 0.505 0 58.5 64.541"
	 xml:space="preserve">
<image display="none" overflow="visible" enable-background="new    " width="512" height="512" xlink:href="C:\Users\Alex\Downloads\clear-filter.png"  transform="matrix(0.1543 0 0 0.1543 -2.4482 1.4004)">
</image>
<g>
	<g id="Layer_2">
		<g>
			<path fill="#198754" d="M9.088,5.383L2.855,5.382C1.443,5.568,0.986,6.527,0.986,6.527c-1.289,2.035,0.416,3.616,0.416,3.616
				l21.15,22.897c0.914,0.912,1.121,2.156,1.121,2.156v16.916c0,1.451,0.917,2.368,0.917,2.368l7.479,8.601
				c1.081,1.453,1.787,1.41,1.787,1.41c2.034,0,2.117-1.699,2.117-1.699V34.938c0-0.512,0.459-0.985,0.459-0.985l0.987-1.086"/>
			<path fill="#198754" d="M41.388,28.626L58.829,9.353c0.914-3.406-2.035-3.969-2.035-3.969h-38.38"/>
		</g>
	</g>
	
		<line fill="none" stroke="#ED1C24" stroke-width="5" stroke-linecap="round" stroke-miterlimit="10" x1="16.255" y1="2.55" x2="45.922" y2="31.689"/>
</g>
</svg>
