<?xml version="1.0" encoding="utf-8"?>
<!-- Generator: Adobe Illustrator 16.0.0, SVG Export Plug-In . SVG Version: 6.00 Build 0)  -->
<!DOCTYPE svg PUBLIC "-//W3C//DTD SVG 1.1//EN" "http://www.w3.org/Graphics/SVG/1.1/DTD/svg11.dtd">
<svg version="1.1" id="Layer_26" xmlns="http://www.w3.org/2000/svg" xmlns:xlink="http://www.w3.org/1999/xlink" x="0px" y="0px"
	 width="512px" height="512px" viewBox="0 0 512 512" enable-background="new 0 0 512 512" xml:space="preserve">
<circle display="none" fill="#FDBA13" cx="256" cy="256" r="226"/>
<g>
	<defs>
		<circle id="SVGID_1_" cx="256" cy="256" r="226"/>
	</defs>
	<clipPath id="SVGID_2_">
		<use xlink:href="#SVGID_1_"  overflow="visible"/>
	</clipPath>
</g>
<path fill="#FDBA13" d="M386.245,43.011h-260.49c-46.582,0-84.346,37.763-84.346,84.346v257.287
	c0,46.583,37.764,84.346,84.346,84.346h260.49c46.583,0,84.346-37.763,84.346-84.346V127.356
	C470.591,80.774,432.828,43.011,386.245,43.011z"/>
<g>
	<defs>
		<path id="SVGID_3_" d="M386.245,43.011h-260.49c-46.582,0-84.346,37.763-84.346,84.346v257.287
			c0,46.583,37.764,84.346,84.346,84.346h260.49c46.583,0,84.346-37.763,84.346-84.346V127.356
			C470.591,80.774,432.828,43.011,386.245,43.011z"/>
	</defs>
	<clipPath id="SVGID_4_">
		<use xlink:href="#SVGID_3_"  overflow="visible"/>
	</clipPath>
	<g opacity="0.3" clip-path="url(#SVGID_4_)">
		<path d="M284.947,217.304v-23.179h16.359v23.179H284.947z M301.307,304.304h-16.359v-23.179h16.359V304.304z M209.33,106.33
			h16.359v23.179H209.33V106.33z M209.33,217.304v-23.179h16.359v23.179H209.33z M358.246,88.399v71.374H255.137v-54.531h-29.447
			H209.33h-28.356v54.531h-27.22V88.399h-37.081v279.201h37.081v-15.877h204.492v15.877h37.081V88.399H358.246z M225.689,304.304
			H209.33v-23.179h16.359V304.304z M358.246,334.272h-27.492v-54.235h-29.447h-16.359h-28.356v54.235h-1.454v-54.235h-29.447H209.33
			h-28.356v54.235h-27.22v-69.8h204.492V334.272z M358.246,247.022h-27.492v-53.985h-29.447h-16.359h-28.356v53.985h-1.454v-53.985
			h-29.447H209.33h-28.356v53.985h-27.22v-69.799h204.492V247.022z"/>
		<path d="M287.87,220.056v-23.179h16.359v23.179H287.87z M304.229,307.056H287.87v-23.179h16.359V307.056z M212.253,109.082h16.359
			v23.179h-16.359V109.082z M212.253,220.056v-23.179h16.359v23.179H212.253z M361.169,91.151v71.374H258.06v-54.531h-29.447
			h-16.359h-28.357v54.531h-27.22V91.151h-37.081v279.201h37.081v-15.877h204.493v15.877h37.08V91.151H361.169z M228.612,307.056
			h-16.359v-23.179h16.359V307.056z M361.169,337.024h-27.492v-54.235h-29.447H287.87h-28.356v54.235h-1.454v-54.235h-29.447
			h-16.359h-28.357v54.235h-27.22v-69.8h204.493V337.024z M361.169,249.774h-27.492v-53.985h-29.447H287.87h-28.356v53.985h-1.454
			v-53.985h-29.447h-16.359h-28.357v53.985h-27.22v-69.799h204.493V249.774z"/>
		<path d="M290.792,222.808v-23.179h16.359v23.179H290.792z M307.151,309.808h-16.359v-23.179h16.359V309.808z M215.175,111.833
			h16.359v23.179h-16.359V111.833z M215.175,222.808v-23.179h16.359v23.179H215.175z M364.091,93.903v71.374H260.981v-54.531
			h-29.447h-16.359h-28.356v54.531h-27.22V93.903h-37.081v279.201h37.081v-15.877h204.492v15.877h37.081V93.903H364.091z
			 M231.534,309.808h-16.359v-23.179h16.359V309.808z M364.091,339.776H336.6v-54.235h-29.448h-16.359h-28.356v54.235h-1.454
			v-54.235h-29.447h-16.359h-28.356v54.235h-27.22v-69.8h204.492V339.776z M364.091,252.526H336.6v-53.985h-29.448h-16.359h-28.356
			v53.985h-1.454v-53.985h-29.447h-16.359h-28.356v53.985h-27.22v-69.799h204.492V252.526z"/>
		<path d="M293.715,225.56V202.38h16.359v23.179H293.715z M310.074,312.56h-16.359v-23.179h16.359V312.56z M218.098,114.585h16.359
			v23.179h-16.359V114.585z M218.098,225.56V202.38h16.359v23.179H218.098z M367.014,96.655v71.374H263.904v-54.531h-29.447h-16.359
			h-28.356v54.531h-27.22V96.655H125.44v279.201h37.081v-15.877h204.493v15.877h37.081V96.655H367.014z M234.457,312.56h-16.359
			v-23.179h16.359V312.56z M367.014,342.528h-27.492v-54.235h-29.447h-16.359h-28.356v54.235h-1.454v-54.235h-29.447h-16.359
			h-28.356v54.235h-27.22v-69.8h204.493V342.528z M367.014,255.278h-27.492v-53.984h-29.447h-16.359h-28.356v53.984h-1.454v-53.984
			h-29.447h-16.359h-28.356v53.984h-27.22v-69.798h204.493V255.278z"/>
		<path d="M296.638,228.312v-23.179h16.359v23.179H296.638z M312.997,315.312h-16.359v-23.179h16.359V315.312z M221.021,117.338
			h16.359v23.179h-16.359V117.338z M221.021,228.312v-23.179h16.359v23.179H221.021z M369.937,99.408v71.373H266.827v-54.53H237.38
			h-16.359h-28.356v54.53h-27.22V99.408h-37.081v279.201h37.081v-15.877h204.492v15.877h37.081V99.408H369.937z M237.38,315.312
			h-16.359v-23.179h16.359V315.312z M369.937,345.28h-27.492v-54.235h-29.447h-16.359h-28.356v54.235h-1.454v-54.235H237.38h-16.359
			h-28.356v54.235h-27.22v-69.8h204.492V345.28z M369.937,258.03h-27.492v-53.985h-29.447h-16.359h-28.356v53.985h-1.454v-53.985
			H237.38h-16.359h-28.356v53.985h-27.22v-69.798h204.492V258.03z"/>
		<path d="M299.561,231.063v-23.178h16.359v23.178H299.561z M315.92,318.063h-16.359v-23.179h16.359V318.063z M223.943,120.09
			h16.359v23.178h-16.359V120.09z M223.943,231.063v-23.178h16.359v23.178H223.943z M372.859,102.16v71.374H269.75v-54.531h-29.448
			h-16.359h-28.356v54.531h-27.219V102.16h-37.082V381.36h37.082v-15.877h204.492v15.877h37.081V102.16H372.859z M240.302,318.063
			h-16.359v-23.179h16.359V318.063z M372.859,348.032h-27.492v-54.235H315.92h-16.359h-28.356v54.235h-1.454v-54.235h-29.448
			h-16.359h-28.356v54.235h-27.219v-69.8h204.492V348.032z M372.859,260.782h-27.492v-53.985H315.92h-16.359h-28.356v53.985h-1.454
			v-53.985h-29.448h-16.359h-28.356v53.985h-27.219v-69.799h204.492V260.782z"/>
		<path d="M302.482,233.815v-23.179h16.359v23.179H302.482z M318.842,320.815h-16.359v-23.179h16.359V320.815z M226.866,122.841
			h16.359v23.179h-16.359V122.841z M226.866,233.815v-23.179h16.359v23.179H226.866z M375.781,104.912v71.373H272.672v-54.531
			h-29.447h-16.359h-28.357v54.531H171.29v-71.373h-37.082v279.201h37.082v-15.877h204.492v15.877h37.081V104.912H375.781z
			 M243.225,320.815h-16.359v-23.179h16.359V320.815z M375.781,350.784h-27.492v-54.235h-29.447h-16.359h-28.356v54.235h-1.454
			v-54.235h-29.447h-16.359h-28.357v54.235H171.29v-69.8h204.492V350.784z M375.781,263.534h-27.492v-53.985h-29.447h-16.359
			h-28.356v53.985h-1.454v-53.985h-29.447h-16.359h-28.357v53.985H171.29v-69.799h204.492V263.534z"/>
		<path d="M305.405,236.567v-23.179h16.359v23.179H305.405z M321.765,323.567h-16.359v-23.179h16.359V323.567z M229.788,125.593
			h16.359v23.179h-16.359V125.593z M229.788,236.567v-23.179h16.359v23.179H229.788z M378.704,107.663v71.374H275.595v-54.531
			h-29.447h-16.359h-28.356v54.531h-27.22v-71.374h-37.081v279.201h37.081v-15.877h204.492v15.877h37.081V107.663H378.704z
			 M246.147,323.567h-16.359v-23.179h16.359V323.567z M378.704,353.536h-27.492v-54.235h-29.447h-16.359h-28.356v54.235h-1.454
			v-54.235h-29.447h-16.359h-28.356v54.235h-27.22v-69.8h204.492V353.536z M378.704,266.286h-27.492v-53.985h-29.447h-16.359
			h-28.356v53.985h-1.454v-53.985h-29.447h-16.359h-28.356v53.985h-27.22v-69.799h204.492V266.286z"/>
		<path d="M308.328,239.319v-23.179h16.359v23.179H308.328z M324.688,326.319h-16.359v-23.179h16.359V326.319z M232.71,128.345
			h16.359v23.179H232.71V128.345z M232.71,239.319v-23.179h16.359v23.179H232.71z M381.627,110.415v71.374H278.518v-54.531H249.07
			H232.71h-28.356v54.531h-27.22v-71.374h-37.081v279.201h37.081v-15.877h204.493v15.877h37.08V110.415H381.627z M249.07,326.319
			H232.71v-23.179h16.359V326.319z M381.627,356.288h-27.492v-54.235h-29.447h-16.359h-28.356v54.235h-1.454v-54.235H249.07H232.71
			h-28.356v54.235h-27.22v-69.8h204.493V356.288z M381.627,269.038h-27.492v-53.985h-29.447h-16.359h-28.356v53.985h-1.454v-53.985
			H249.07H232.71h-28.356v53.985h-27.22v-69.799h204.493V269.038z"/>
		<path d="M311.251,242.072v-23.179h16.359v23.179H311.251z M327.61,329.071h-16.359v-23.179h16.359V329.071z M235.634,131.098
			h16.359v23.179h-16.359V131.098z M235.634,242.072v-23.179h16.359v23.179H235.634z M384.55,113.167v71.374H281.44V130.01h-29.448
			h-16.359h-28.356v54.531h-27.22v-71.374h-37.082v279.201h37.082v-15.877H384.55v15.877h37.081V113.167H384.55z M251.993,329.071
			h-16.359v-23.179h16.359V329.071z M384.55,359.04h-27.492v-54.234H327.61h-16.359h-28.356v54.234h-1.454v-54.234h-29.448h-16.359
			h-28.356v54.234h-27.22v-69.8H384.55V359.04z M384.55,271.79h-27.492v-53.984H327.61h-16.359h-28.356v53.984h-1.454v-53.984
			h-29.448h-16.359h-28.356v53.984h-27.22v-69.798H384.55V271.79z"/>
		<path d="M314.173,244.824v-23.179h16.359v23.179H314.173z M330.532,331.823h-16.359v-23.179h16.359V331.823z M238.556,133.85
			h16.36v23.178h-16.36V133.85z M238.556,244.824v-23.179h16.36v23.179H238.556z M387.472,115.919v71.374H284.362v-54.531h-29.447
			h-16.36h-28.356v54.531H182.98v-71.374h-37.082v279.202h37.082v-15.878h204.492v15.878h37.081V115.919H387.472z M254.916,331.823
			h-16.36v-23.179h16.36V331.823z M387.472,361.792h-27.492v-54.235h-29.447h-16.359h-28.356v54.235h-1.454v-54.235h-29.447h-16.36
			h-28.356v54.235H182.98v-69.8h204.492V361.792z M387.472,274.542h-27.492v-53.984h-29.447h-16.359h-28.356v53.984h-1.454v-53.984
			h-29.447h-16.36h-28.356v53.984H182.98v-69.798h204.492V274.542z"/>
		<path d="M317.096,247.575v-23.179h16.359v23.179H317.096z M333.455,334.575h-16.359v-23.179h16.359V334.575z M241.479,136.602
			h16.359v23.179h-16.359V136.602z M241.479,247.575v-23.179h16.359v23.179H241.479z M390.395,118.671v71.374H287.285v-54.531
			h-29.447h-16.359h-28.356v54.531h-27.22v-71.374h-37.081v279.201h37.081v-15.877h204.492v15.877h37.081V118.671H390.395z
			 M257.838,334.575h-16.359v-23.179h16.359V334.575z M390.395,364.544h-27.492v-54.235h-29.447h-16.359h-28.356v54.235h-1.454
			v-54.235h-29.447h-16.359h-28.356v54.235h-27.22v-69.8h204.492V364.544z M390.395,277.294h-27.492v-53.985h-29.447h-16.359
			h-28.356v53.985h-1.454v-53.985h-29.447h-16.359h-28.356v53.985h-27.22v-69.799h204.492V277.294z"/>
		<path d="M320.019,250.328v-23.179h16.359v23.179H320.019z M336.378,337.328h-16.359v-23.18h16.359V337.328z M244.402,139.354
			h16.359v23.179h-16.359V139.354z M244.402,250.328v-23.179h16.359v23.179H244.402z M393.317,121.423v71.374H290.208v-54.531
			h-29.447h-16.359h-28.356v54.531h-27.22v-71.374h-37.081v279.202h37.081v-15.877h204.492v15.877h37.081V121.423H393.317z
			 M260.761,337.328h-16.359v-23.18h16.359V337.328z M393.317,367.297h-27.492v-54.235h-29.447h-16.359h-28.356v54.235h-1.454
			v-54.235h-29.447h-16.359h-28.356v54.235h-27.22v-69.801h204.492V367.297z M393.317,280.047h-27.492v-53.985h-29.447h-16.359
			h-28.356v53.985h-1.454v-53.985h-29.447h-16.359h-28.356v53.985h-27.22v-69.799h204.492V280.047z"/>
		<path d="M322.941,253.08v-23.179h16.359v23.179H322.941z M339.301,340.08h-16.359v-23.179h16.359V340.08z M247.324,142.105h16.36
			v23.179h-16.36V142.105z M247.324,253.08v-23.179h16.36v23.179H247.324z M396.24,124.175v71.374H293.131v-54.531h-29.447h-16.36
			h-28.356v54.531h-27.22v-71.374h-37.081v279.202h37.081V387.5H396.24v15.877h37.081V124.175H396.24z M263.684,340.08h-16.36
			v-23.179h16.36V340.08z M396.24,370.049h-27.492v-54.236h-29.447h-16.359h-28.356v54.236h-1.454v-54.236h-29.447h-16.36h-28.356
			v54.236h-27.22v-69.801H396.24V370.049z M396.24,282.798h-27.492v-53.984h-29.447h-16.359h-28.356v53.984h-1.454v-53.984h-29.447
			h-16.36h-28.356v53.984h-27.22V213H396.24V282.798z"/>
		<path d="M325.863,255.832v-23.179h16.359v23.179H325.863z M342.223,342.831h-16.359v-23.179h16.359V342.831z M250.247,144.857
			h16.359v23.179h-16.359V144.857z M250.247,255.832v-23.179h16.359v23.179H250.247z M399.162,126.927v71.374H296.053V143.77
			h-29.447h-16.359H221.89v54.531h-27.22v-71.374h-37.081v279.202h37.081v-15.878h204.492v15.878h37.082V126.927H399.162z
			 M266.605,342.831h-16.359v-23.179h16.359V342.831z M399.162,372.8H371.67v-54.235h-29.447h-16.359h-28.356V372.8h-1.454v-54.235
			h-29.447h-16.359H221.89V372.8h-27.22v-69.799h204.492V372.8z M399.162,285.55H371.67v-53.984h-29.447h-16.359h-28.356v53.984
			h-1.454v-53.984h-29.447h-16.359H221.89v53.984h-27.22v-69.798h204.492V285.55z"/>
		<path d="M328.786,258.583v-23.179h16.359v23.179H328.786z M345.146,345.583h-16.359v-23.179h16.359V345.583z M253.169,147.609
			h16.359v23.178h-16.359V147.609z M253.169,258.583v-23.179h16.359v23.179H253.169z M402.085,129.679v71.374H298.976v-54.531
			h-29.447h-16.359h-28.356v54.531h-27.22v-71.374h-37.081V408.88h37.081v-15.877h204.492v15.877h37.081V129.679H402.085z
			 M269.528,345.583h-16.359v-23.179h16.359V345.583z M402.085,375.553h-27.492v-54.236h-29.447h-16.359H300.43v54.236h-1.454
			v-54.236h-29.447h-16.359h-28.356v54.236h-27.22v-69.801h204.492V375.553z M402.085,288.302h-27.492v-53.984h-29.447h-16.359
			H300.43v53.984h-1.454v-53.984h-29.447h-16.359h-28.356v53.984h-27.22v-69.798h204.492V288.302z"/>
		<path d="M331.709,261.335v-23.179h16.359v23.179H331.709z M348.068,348.336h-16.359v-23.18h16.359V348.336z M256.092,150.361
			h16.359v23.179h-16.359V150.361z M256.092,261.335v-23.179h16.359v23.179H256.092z M405.008,132.431v71.374H301.898v-54.531
			h-29.447h-16.359h-28.356v54.531h-27.22v-71.374h-37.081v279.202h37.081v-15.878h204.493v15.878h37.08V132.431H405.008z
			 M272.451,348.336h-16.359v-23.18h16.359V348.336z M405.008,378.304h-27.492v-54.235h-29.447h-16.359h-28.356v54.235h-1.454
			v-54.235h-29.447h-16.359h-28.356v54.235h-27.22v-69.8h204.493V378.304z M405.008,291.054h-27.492v-53.985h-29.447h-16.359
			h-28.356v53.985h-1.454v-53.985h-29.447h-16.359h-28.356v53.985h-27.22v-69.798h204.493V291.054z"/>
		<path d="M334.632,264.088v-23.179h16.359v23.179H334.632z M350.991,351.088h-16.359v-23.179h16.359V351.088z M259.015,153.113
			h16.359v23.179h-16.359V153.113z M259.015,264.088v-23.179h16.359v23.179H259.015z M407.931,135.183v71.374H304.821v-54.531
			h-29.447h-16.359h-28.356v54.531h-27.22v-71.374h-37.081v279.202h37.081v-15.877h204.493v15.877h37.081V135.183H407.931z
			 M275.374,351.088h-16.359v-23.179h16.359V351.088z M407.931,381.057h-27.492v-54.235h-29.447h-16.359h-28.356v54.235h-1.454
			v-54.235h-29.447h-16.359h-28.356v54.235h-27.22v-69.8h204.493V381.057z M407.931,293.807h-27.492v-53.985h-29.447h-16.359
			h-28.356v53.985h-1.454v-53.985h-29.447h-16.359h-28.356v53.985h-27.22v-69.799h204.493V293.807z"/>
		<path d="M337.554,266.84v-23.179h16.36v23.179H337.554z M353.914,353.84h-16.36v-23.18h16.36V353.84z M261.937,155.865h16.36
			v23.179h-16.36V155.865z M261.937,266.84v-23.179h16.36v23.179H261.937z M410.854,137.935v71.374H307.744v-54.531h-29.447h-16.36
			h-28.356v54.531h-27.22v-71.374H169.28v279.202h37.081V401.26h204.493v15.877h37.08V137.935H410.854z M278.297,353.84h-16.36
			v-23.18h16.36V353.84z M410.854,383.809H383.36v-54.236h-29.446h-16.36h-28.355v54.236h-1.454v-54.236h-29.447h-16.36h-28.356
			v54.236h-27.22v-69.801h204.493V383.809z M410.854,296.559H383.36v-53.985h-29.446h-16.36h-28.355v53.985h-1.454v-53.985h-29.447
			h-16.36h-28.356v53.985h-27.22v-69.799h204.493V296.559z"/>
		<path d="M340.477,269.592v-23.179h16.359v23.179H340.477z M356.836,356.591h-16.359v-23.178h16.359V356.591z M264.859,158.618
			h16.359v23.178h-16.359V158.618z M264.859,269.592v-23.179h16.359v23.179H264.859z M413.775,140.687v71.374H310.666V157.53
			h-29.447h-16.359h-28.356v54.531h-27.22v-71.374h-37.081v279.201h37.081v-15.876h204.492v15.876h37.081V140.687H413.775z
			 M281.219,356.591h-16.359v-23.178h16.359V356.591z M413.775,386.561h-27.492v-54.236h-29.447h-16.359H312.12v54.236h-1.454
			v-54.236h-29.447h-16.359h-28.356v54.236h-27.22v-69.8h204.492V386.561z M413.775,299.311h-27.492v-53.985h-29.447h-16.359H312.12
			v53.985h-1.454v-53.985h-29.447h-16.359h-28.356v53.985h-27.22v-69.799h204.492V299.311z"/>
		<path d="M343.399,272.344v-23.179h16.359v23.179H343.399z M359.759,359.344h-16.359v-23.179h16.359V359.344z M267.782,161.37
			h16.359v23.179h-16.359V161.37z M267.782,272.344v-23.179h16.359v23.179H267.782z M416.698,143.439v71.374H313.589v-54.531
			h-29.447h-16.359h-28.356v54.531h-27.22v-71.374h-37.081v279.201h37.081v-15.877h204.492v15.877h37.081V143.439H416.698z
			 M284.142,359.344h-16.359v-23.179h16.359V359.344z M416.698,389.313h-27.492v-54.235h-29.447h-16.359h-28.356v54.235h-1.454
			v-54.235h-29.447h-16.359h-28.356v54.235h-27.22v-69.8h204.492V389.313z M416.698,302.063h-27.492v-53.985h-29.447h-16.359
			h-28.356v53.985h-1.454v-53.985h-29.447h-16.359h-28.356v53.985h-27.22v-69.799h204.492V302.063z"/>
		<path d="M346.322,275.096v-23.179h16.359v23.179H346.322z M362.682,362.096h-16.359v-23.179h16.359V362.096z M270.705,164.122
			h16.359V187.3h-16.359V164.122z M270.705,275.096v-23.179h16.359v23.179H270.705z M419.621,146.191v71.374H316.512v-54.531
			h-29.447h-16.359h-28.356v54.531h-27.22v-71.374h-37.081v279.201h37.081v-15.877h204.492v15.877h37.081V146.191H419.621z
			 M287.064,362.096h-16.359v-23.179h16.359V362.096z M419.621,392.064h-27.492v-54.235h-29.447h-16.359h-28.356v54.235h-1.454
			v-54.235h-29.447h-16.359h-28.356v54.235h-27.22v-69.8h204.492V392.064z M419.621,304.814h-27.492V250.83h-29.447h-16.359h-28.356
			v53.985h-1.454V250.83h-29.447h-16.359h-28.356v53.985h-27.22v-69.799h204.492V304.814z"/>
		<path d="M349.244,277.848v-23.179h16.359v23.179H349.244z M365.604,364.848h-16.359v-23.179h16.359V364.848z M273.627,166.874
			h16.359v23.179h-16.359V166.874z M273.627,277.848v-23.179h16.359v23.179H273.627z M422.544,148.943v71.374h-103.11v-54.531
			h-29.447h-16.359h-28.356v54.531h-27.22v-71.374H180.97v279.201h37.081v-15.877h204.493v15.877h37.081V148.943H422.544z
			 M289.986,364.848h-16.359v-23.179h16.359V364.848z M422.544,394.816h-27.493v-54.235h-29.447h-16.359h-28.355v54.235h-1.455
			v-54.235h-29.447h-16.359h-28.356v54.235h-27.22v-69.8h204.493V394.816z M422.544,307.566h-27.493v-53.985h-29.447h-16.359
			h-28.355v53.985h-1.455v-53.985h-29.447h-16.359h-28.356v53.985h-27.22v-69.799h204.493V307.566z"/>
		<path d="M352.167,280.6v-23.179h16.359V280.6H352.167z M368.526,367.6h-16.359v-23.179h16.359V367.6z M276.55,169.625h16.359
			v23.179H276.55V169.625z M276.55,280.6v-23.179h16.359V280.6H276.55z M425.466,151.695v71.373H322.356v-54.531h-29.447H276.55
			h-28.356v54.531h-27.22v-71.373h-37.081v279.201h37.081V415.02h204.492v15.877h37.081V151.695H425.466z M292.909,367.6H276.55
			v-23.179h16.359V367.6z M425.466,397.568h-27.492v-54.235h-29.447h-16.359h-28.356v54.235h-1.454v-54.235h-29.447H276.55h-28.356
			v54.235h-27.22v-69.8h204.492V397.568z M425.466,310.318h-27.492v-53.985h-29.447h-16.359h-28.356v53.985h-1.454v-53.985h-29.447
			H276.55h-28.356v53.985h-27.22v-69.799h204.492V310.318z"/>
		<path d="M355.09,283.352v-23.179h16.359v23.179H355.09z M371.449,370.352H355.09v-23.18h16.359V370.352z M279.473,172.377h16.359
			v23.178h-16.359V172.377z M279.473,283.352v-23.179h16.359v23.179H279.473z M428.389,154.447v71.374H325.279V171.29h-29.447
			h-16.359h-28.357v54.531h-27.219v-71.374h-37.081v279.202h37.081v-15.877h204.492v15.877h37.08V154.447H428.389z M295.832,370.352
			h-16.359v-23.18h16.359V370.352z M428.389,400.32h-27.492v-54.235h-29.447H355.09h-28.356v54.235h-1.454v-54.235h-29.447h-16.359
			h-28.357v54.235h-27.219V330.52h204.492V400.32z M428.389,313.07h-27.492v-53.985h-29.447H355.09h-28.356v53.985h-1.454v-53.985
			h-29.447h-16.359h-28.357v53.985h-27.219v-69.799h204.492V313.07z"/>
		<path d="M358.013,286.104v-23.179h16.359v23.179H358.013z M374.372,373.104h-16.359v-23.179h16.359V373.104z M282.396,175.13
			h16.359v23.178h-16.359V175.13z M282.396,286.104v-23.179h16.359v23.179H282.396z M431.312,157.199v71.374H328.202v-54.531
			h-29.447h-16.359h-28.356v54.531h-27.22v-71.374h-37.081V436.4h37.081v-15.877h204.492V436.4h37.081V157.199H431.312z
			 M298.755,373.104h-16.359v-23.179h16.359V373.104z M431.312,403.072h-27.492v-54.235h-29.447h-16.359h-28.356v54.235h-1.454
			v-54.235h-29.447h-16.359h-28.356v54.235h-27.22v-69.8h204.492V403.072z M431.312,315.822h-27.492v-53.985h-29.447h-16.359
			h-28.356v53.985h-1.454v-53.985h-29.447h-16.359h-28.356v53.985h-27.22v-69.799h204.492V315.822z"/>
		<path d="M360.936,288.855v-23.179h16.359v23.179H360.936z M377.295,375.855h-16.359v-23.179h16.359V375.855z M285.318,177.881
			h16.359v23.178h-16.359V177.881z M285.318,288.855v-23.179h16.359v23.179H285.318z M434.234,159.951v71.374H331.125v-54.531
			h-29.447h-16.359h-28.356v54.531h-27.22v-71.374h-37.081v279.201h37.081v-15.877h204.493v15.877h37.08V159.951H434.234z
			 M301.678,375.855h-16.359v-23.179h16.359V375.855z M434.234,405.824h-27.492v-54.235h-29.447h-16.359h-28.357v54.235h-1.453
			v-54.235h-29.447h-16.359h-28.356v54.235h-27.22v-69.8h204.493V405.824z M434.234,318.574h-27.492V264.59h-29.447h-16.359h-28.357
			v53.984h-1.453V264.59h-29.447h-16.359h-28.356v53.984h-27.22v-69.799h204.493V318.574z"/>
		<path d="M363.857,291.607v-23.179h16.359v23.179H363.857z M380.217,378.607h-16.359v-23.179h16.359V378.607z M288.24,180.633
			H304.6v23.179H288.24V180.633z M288.24,291.607v-23.179H304.6v23.179H288.24z M437.156,162.703v71.374H334.047v-54.531H304.6
			H288.24h-28.356v54.531h-27.22v-71.374h-37.081v279.201h37.081v-15.877h204.492v15.877h37.081V162.703H437.156z M304.6,378.607
			H288.24v-23.179H304.6V378.607z M437.156,408.576h-27.492v-54.235h-29.447h-16.359h-28.356v54.235h-1.454v-54.235H304.6H288.24
			h-28.356v54.235h-27.22v-69.8h204.492V408.576z M437.156,321.326h-27.492v-53.985h-29.447h-16.359h-28.356v53.985h-1.454v-53.985
			H304.6H288.24h-28.356v53.985h-27.22v-69.799h204.492V321.326z"/>
		<path d="M366.78,294.359v-23.179h16.36v23.179H366.78z M383.141,381.36h-16.36v-23.179h16.36V381.36z M291.163,183.386h16.359
			v23.179h-16.359V183.386z M291.163,294.359v-23.179h16.359v23.179H291.163z M440.08,165.456v71.374H336.97v-54.531h-29.447
			h-16.359h-28.356v54.531h-27.22v-71.374h-37.081v279.201h37.081v-15.877H440.08v15.877h37.08V165.456H440.08z M307.522,381.36
			h-16.359v-23.179h16.359V381.36z M440.08,411.328h-27.492v-54.235h-29.447h-16.36h-28.356v54.235h-1.454v-54.235h-29.447h-16.359
			h-28.356v54.235h-27.22v-69.8H440.08V411.328z M440.08,324.078h-27.492v-53.984h-29.447h-16.36h-28.356v53.984h-1.454v-53.984
			h-29.447h-16.359h-28.356v53.984h-27.22V254.28H440.08V324.078z"/>
		<path d="M369.703,297.111v-23.179h16.359v23.179H369.703z M386.063,384.111h-16.359v-23.179h16.359V384.111z M294.086,186.138
			h16.359v23.179h-16.359V186.138z M294.086,297.111v-23.179h16.359v23.179H294.086z M443.002,168.208v71.374H339.893V185.05
			h-29.447h-16.359h-28.356v54.531h-27.22v-71.374h-37.081v279.201h37.081v-15.877h204.492v15.877h37.081V168.208H443.002z
			 M310.445,384.111h-16.359v-23.179h16.359V384.111z M443.002,414.08H415.51v-54.235h-29.447h-16.359h-28.356v54.235h-1.454
			v-54.235h-29.447h-16.359h-28.356v54.235h-27.22v-69.8h204.492V414.08z M443.002,326.83H415.51v-53.984h-29.447h-16.359h-28.356
			v53.984h-1.454v-53.984h-29.447h-16.359h-28.356v53.984h-27.22v-69.799h204.492V326.83z"/>
		<path d="M372.626,299.863v-23.179h16.358v23.179H372.626z M388.984,386.863h-16.358v-23.178h16.358V386.863z M297.008,188.89
			h16.359v23.178h-16.359V188.89z M297.008,299.863v-23.179h16.359v23.179H297.008z M445.924,170.959v71.373H342.814v-54.531
			h-29.447h-16.359h-28.355v54.531h-27.22v-71.373h-37.081V450.16h37.081v-15.877h204.492v15.877h37.082V170.959H445.924z
			 M313.367,386.863h-16.359v-23.178h16.359V386.863z M445.924,416.832h-27.492v-54.235h-29.447h-16.358H344.27v54.235h-1.455
			v-54.235h-29.447h-16.359h-28.355v54.235h-27.22v-69.799h204.492V416.832z M445.924,329.582h-27.492v-53.984h-29.447h-16.358
			H344.27v53.984h-1.455v-53.984h-29.447h-16.359h-28.355v53.984h-27.22v-69.799h204.492V329.582z"/>
		<path d="M375.549,302.615v-23.179h16.359v23.179H375.549z M391.908,389.615h-16.359v-23.179h16.359V389.615z M299.931,191.642
			h16.359v23.178h-16.359V191.642z M299.931,302.615v-23.179h16.359v23.179H299.931z M448.847,173.711v71.374H345.737v-54.531
			H316.29h-16.359h-28.356v54.531h-27.22v-71.374h-37.081v279.201h37.081v-15.877h204.492v15.877h37.081V173.711H448.847z
			 M316.29,389.615h-16.359v-23.179h16.359V389.615z M448.847,419.584h-27.492v-54.235h-29.446h-16.359h-28.357v54.235h-1.454
			v-54.235H316.29h-16.359h-28.356v54.235h-27.22v-69.8h204.492V419.584z M448.847,332.334h-27.492V278.35h-29.446h-16.359h-28.357
			v53.984h-1.454V278.35H316.29h-16.359h-28.356v53.984h-27.22v-69.799h204.492V332.334z"/>
		<path d="M378.471,305.367v-23.179h16.359v23.179H378.471z M394.83,392.367h-16.359v-23.179h16.359V392.367z M302.854,194.393
			h16.359v23.179h-16.359V194.393z M302.854,305.367v-23.179h16.359v23.179H302.854z M451.77,176.463v71.374H348.66v-54.531h-29.447
			h-16.359h-28.356v54.531h-27.22v-71.374h-37.081v279.201h37.081v-15.877H451.77v15.877h37.081V176.463H451.77z M319.213,392.367
			h-16.359v-23.179h16.359V392.367z M451.77,422.336h-27.492v-54.235H394.83h-16.359h-28.356v54.235h-1.454v-54.235h-29.447h-16.359
			h-28.356v54.235h-27.22v-69.8H451.77V422.336z M451.77,335.086h-27.492v-53.985H394.83h-16.359h-28.356v53.985h-1.454v-53.985
			h-29.447h-16.359h-28.356v53.985h-27.22v-69.799H451.77V335.086z"/>
		<path d="M381.394,308.119V284.94h16.359v23.179H381.394z M397.753,395.119h-16.359v-23.178h16.359V395.119z M305.776,197.146
			h16.359v23.178h-16.359V197.146z M305.776,308.119V284.94h16.359v23.179H305.776z M454.692,179.215v71.374H351.583v-54.531
			h-29.447h-16.359H277.42v54.531H250.2v-71.374h-37.081v279.201H250.2v-15.877h204.493v15.877h37.081V179.215H454.692z
			 M322.136,395.119h-16.359v-23.178h16.359V395.119z M454.692,425.088H427.2v-54.234h-29.447h-16.359h-28.356v54.234h-1.454
			v-54.234h-29.447h-16.359H277.42v54.234H250.2v-69.8h204.493V425.088z M454.692,337.838H427.2v-53.984h-29.447h-16.359h-28.356
			v53.984h-1.454v-53.984h-29.447h-16.359H277.42v53.984H250.2v-69.799h204.493V337.838z"/>
		<path d="M384.316,310.872v-23.179h16.359v23.179H384.316z M400.676,397.871h-16.359v-23.178h16.359V397.871z M308.699,199.898
			h16.359v23.178h-16.359V199.898z M308.699,310.872v-23.179h16.359v23.179H308.699z M457.615,181.968v71.374H354.506V198.81
			h-29.447h-16.359h-28.356v54.531h-27.22v-71.374h-37.081v279.2h37.081v-15.876h204.492v15.876h37.081v-279.2H457.615z
			 M325.059,397.871h-16.359v-23.178h16.359V397.871z M457.615,427.841h-27.492v-54.235h-29.447h-16.359H355.96v54.235h-1.454
			v-54.235h-29.447h-16.359h-28.356v54.235h-27.22v-69.8h204.492V427.841z M457.615,340.591h-27.492v-53.985h-29.447h-16.359H355.96
			v53.985h-1.454v-53.985h-29.447h-16.359h-28.356v53.985h-27.22v-69.799h204.492V340.591z"/>
		<path d="M387.238,313.623v-23.178h16.359v23.178H387.238z M403.598,400.623h-16.359v-23.179h16.359V400.623z M311.621,202.649
			h16.359v23.179h-16.359V202.649z M311.621,313.623v-23.178h16.359v23.178H311.621z M460.537,184.72v71.373H357.428v-54.531H327.98
			h-16.359h-28.356v54.531h-27.22V184.72h-37.081v279.2h37.081v-15.877h204.492v15.877h37.081v-279.2H460.537z M327.98,400.623
			h-16.359v-23.179h16.359V400.623z M460.537,430.593h-27.492v-54.236h-29.447h-16.359h-28.356v54.236h-1.454v-54.236H327.98
			h-16.359h-28.356v54.236h-27.22v-69.801h204.492V430.593z M460.537,343.342h-27.492v-53.984h-29.447h-16.359h-28.356v53.984
			h-1.454v-53.984H327.98h-16.359h-28.356v53.984h-27.22v-69.799h204.492V343.342z"/>
		<path d="M390.161,316.375v-23.179h16.359v23.179H390.161z M406.521,403.375h-16.359v-23.178h16.359V403.375z M314.544,205.401
			h16.359v23.179h-16.359V205.401z M314.544,316.375v-23.179h16.359v23.179H314.544z M463.46,187.471v71.374H360.351v-54.531
			h-29.447h-16.359h-28.356v54.531h-27.22v-71.374h-37.081v279.201h37.081v-15.877H463.46v15.877h37.081V187.471H463.46z
			 M330.903,403.375h-16.359v-23.178h16.359V403.375z M463.46,433.344h-27.492v-54.235h-29.447h-16.359h-28.356v54.235h-1.454
			v-54.235h-29.447h-16.359h-28.356v54.235h-27.22v-69.799H463.46V433.344z M463.46,346.094h-27.492v-53.984h-29.447h-16.359
			h-28.356v53.984h-1.454v-53.984h-29.447h-16.359h-28.356v53.984h-27.22v-69.799H463.46V346.094z"/>
		<path d="M393.084,319.127v-23.178h16.359v23.178H393.084z M409.443,406.127h-16.359v-23.178h16.359V406.127z M317.467,208.153
			h16.359v23.179h-16.359V208.153z M317.467,319.127v-23.178h16.359v23.178H317.467z M466.383,190.224v71.373H363.273v-54.531
			h-29.447h-16.359H289.11v54.531h-27.22v-71.373H224.81v279.2h37.081v-15.876h204.492v15.876h37.081v-279.2H466.383z
			 M333.826,406.127h-16.359v-23.178h16.359V406.127z M466.383,436.097h-27.492v-54.235h-29.447h-16.359h-28.356v54.235h-1.454
			v-54.235h-29.447h-16.359H289.11v54.235h-27.22v-69.8h204.492V436.097z M466.383,348.846h-27.492v-53.984h-29.447h-16.359h-28.356
			v53.984h-1.454v-53.984h-29.447h-16.359H289.11v53.984h-27.22v-69.798h204.492V348.846z"/>
		<path d="M396.007,321.88v-23.179h16.359v23.179H396.007z M412.366,408.88h-16.359v-23.179h16.359V408.88z M320.39,210.905h16.359
			v23.179H320.39V210.905z M320.39,321.88v-23.179h16.359v23.179H320.39z M469.306,192.976v71.374H366.196v-54.531h-29.447H320.39
			h-28.356v54.531h-27.22v-71.374h-37.081v279.201h37.081V456.3h204.492v15.877h37.081V192.976H469.306z M336.749,408.88H320.39
			v-23.179h16.359V408.88z M469.306,438.849h-27.492v-54.235h-29.447h-16.359H367.65v54.235h-1.454v-54.235h-29.447H320.39h-28.356
			v54.235h-27.22v-69.8h204.492V438.849z M469.306,351.599h-27.492v-53.985h-29.447h-16.359H367.65v53.985h-1.454v-53.985h-29.447
			H320.39h-28.356v53.985h-27.22V281.8h204.492V351.599z"/>
		<path d="M398.929,324.632v-23.179h16.359v23.179H398.929z M415.288,411.631h-16.359v-23.178h16.359V411.631z M323.313,213.658
			h16.359v23.178h-16.359V213.658z M323.313,324.632v-23.179h16.359v23.179H323.313z M472.228,195.728v71.374H369.119V212.57
			h-29.447h-16.359h-28.357v54.532h-27.219v-71.374h-37.081v279.2h37.081v-15.877h204.491v15.877h37.081v-279.2H472.228z
			 M339.672,411.631h-16.359v-23.178h16.359V411.631z M472.228,441.601h-27.492v-54.235h-29.447h-16.359h-28.356v54.235h-1.453
			v-54.235h-29.447h-16.359h-28.357v54.235h-27.219v-69.8h204.491V441.601z M472.228,354.35h-27.492v-53.984h-29.447h-16.359
			h-28.356v53.984h-1.453v-53.984h-29.447h-16.359h-28.357v53.984h-27.219v-69.799h204.491V354.35z"/>
		<path d="M401.852,327.383v-23.179h16.359v23.179H401.852z M418.211,414.383h-16.359v-23.179h16.359V414.383z M326.234,216.409
			h16.359v23.178h-16.359V216.409z M326.234,327.383v-23.179h16.359v23.179H326.234z M475.15,198.479v71.374H372.041v-54.531
			h-29.447h-16.359h-28.356v54.531h-27.22v-71.374h-37.081v279.202h37.081v-15.878H475.15v15.878h37.081V198.479H475.15z
			 M342.594,414.383h-16.359v-23.179h16.359V414.383z M475.15,444.352h-27.492v-54.234h-29.447h-16.359h-28.356v54.234h-1.454
			v-54.234h-29.447h-16.359h-28.356v54.234h-27.22v-69.8H475.15V444.352z M475.15,357.103h-27.492v-53.985h-29.447h-16.359h-28.356
			v53.985h-1.454v-53.985h-29.447h-16.359h-28.356v53.985h-27.22v-69.8H475.15V357.103z"/>
		<path d="M404.774,330.136v-23.179h16.359v23.179H404.774z M421.134,417.135h-16.359v-23.178h16.359V417.135z M329.157,219.162
			h16.359v23.178h-16.359V219.162z M329.157,330.136v-23.179h16.359v23.179H329.157z M478.073,201.231v71.375H374.964v-54.532
			h-29.447h-16.359h-28.356v54.532h-27.22v-71.375H236.5v279.202h37.081v-15.878h204.492v15.878h37.081V201.231H478.073z
			 M345.517,417.135h-16.359v-23.178h16.359V417.135z M478.073,447.104h-27.492v-54.235h-29.447h-16.359h-28.356v54.235h-1.454
			v-54.235h-29.447h-16.359h-28.356v54.235h-27.22v-69.8h204.492V447.104z M478.073,359.854h-27.492v-53.985h-29.447h-16.359
			h-28.356v53.985h-1.454v-53.985h-29.447h-16.359h-28.356v53.985h-27.22v-69.8h204.492V359.854z"/>
		<path d="M407.697,332.888v-23.179h16.359v23.179H407.697z M424.057,419.888h-16.359v-23.179h16.359V419.888z M332.08,221.914
			h16.359v23.178H332.08V221.914z M332.08,332.888v-23.179h16.359v23.179H332.08z M480.996,203.983v71.374H377.887v-54.531h-29.447
			H332.08h-28.356v54.531h-27.22v-71.374h-37.081v279.201h37.081v-15.877h204.492v15.877h37.081V203.983H480.996z M348.439,419.888
			H332.08v-23.179h16.359V419.888z M480.996,449.856h-27.492v-54.235h-29.447h-16.359h-28.356v54.235h-1.454v-54.235h-29.447H332.08
			h-28.356v54.235h-27.22v-69.8h204.492V449.856z M480.996,362.606h-27.492v-53.985h-29.447h-16.359h-28.356v53.985h-1.454v-53.985
			h-29.447H332.08h-28.356v53.985h-27.22v-69.799h204.492V362.606z"/>
		<path d="M410.619,335.64v-23.179h16.359v23.179H410.619z M426.979,422.64h-16.359v-23.179h16.359V422.64z M335.002,224.665h16.359
			v23.179h-16.359V224.665z M335.002,335.64v-23.179h16.359v23.179H335.002z M483.919,206.735v71.375h-103.11v-54.532h-29.447
			h-16.359h-28.355v54.532h-27.221v-71.375h-37.081v279.202h37.081V470.06h204.493v15.877H521V206.735H483.919z M351.361,422.64
			h-16.359v-23.179h16.359V422.64z M483.919,452.608h-27.493v-54.235h-29.447h-16.359h-28.355v54.235h-1.455v-54.235h-29.447
			h-16.359h-28.355v54.235h-27.221v-69.8h204.493V452.608z M483.919,365.358h-27.493v-53.985h-29.447h-16.359h-28.355v53.985h-1.455
			v-53.985h-29.447h-16.359h-28.355v53.985h-27.221V295.56h204.493V365.358z"/>
		<path d="M413.542,338.392v-23.179h16.359v23.179H413.542z M429.901,425.391h-16.359v-23.178h16.359V425.391z M337.925,227.417
			h16.359v23.178h-16.359V227.417z M337.925,338.392v-23.179h16.359v23.179H337.925z M486.841,209.487v71.375H383.731v-54.532
			h-29.447h-16.359h-28.356v54.532h-27.22v-71.375h-37.081v279.202h37.081v-15.878h204.492v15.878h37.081V209.487H486.841z
			 M354.284,425.391h-16.359v-23.178h16.359V425.391z M486.841,455.36h-27.492v-54.235h-29.447h-16.359h-28.356v54.235h-1.454
			v-54.235h-29.447h-16.359h-28.356v54.235h-27.22v-69.8h204.492V455.36z M486.841,368.11h-27.492v-53.985h-29.447h-16.359h-28.356
			v53.985h-1.454v-53.985h-29.447h-16.359h-28.356v53.985h-27.22v-69.8h204.492V368.11z"/>
		<path d="M416.465,341.144v-23.179h16.359v23.179H416.465z M432.824,428.144h-16.359v-23.179h16.359V428.144z M340.848,230.17
			h16.359v23.178h-16.359V230.17z M340.848,341.144v-23.179h16.359v23.179H340.848z M489.764,212.239v71.374H386.654v-54.531
			h-29.447h-16.359h-28.356v54.531h-27.22v-71.374H248.19V491.44h37.081v-15.877h204.492v15.877h37.081V212.239H489.764z
			 M357.207,428.144h-16.359v-23.179h16.359V428.144z M489.764,458.112h-27.492v-54.235h-29.447h-16.359h-28.356v54.235h-1.454
			v-54.235h-29.447h-16.359h-28.356v54.235h-27.22v-69.8h204.492V458.112z M489.764,370.862h-27.492v-53.985h-29.447h-16.359
			h-28.356v53.985h-1.454v-53.985h-29.447h-16.359h-28.356v53.985h-27.22v-69.799h204.492V370.862z"/>
		<path d="M419.388,343.896v-23.179h16.359v23.179H419.388z M435.747,430.896h-16.359v-23.179h16.359V430.896z M343.771,232.922
			h16.359V256.1h-16.359V232.922z M343.771,343.896v-23.179h16.359v23.179H343.771z M492.687,214.991v71.374H389.577v-54.531H360.13
			h-16.359h-28.356v54.531h-27.22v-71.374h-37.081v279.201h37.081v-15.877h204.492v15.877h37.081V214.991H492.687z M360.13,430.896
			h-16.359v-23.179h16.359V430.896z M492.687,460.864h-27.492v-54.235h-29.447h-16.359h-28.356v54.235h-1.454v-54.235H360.13
			h-16.359h-28.356v54.235h-27.22v-69.8h204.492V460.864z M492.687,373.614h-27.492v-53.985h-29.447h-16.359h-28.356v53.985h-1.454
			v-53.985H360.13h-16.359h-28.356v53.985h-27.22v-69.799h204.492V373.614z"/>
		<path d="M422.31,346.647v-23.179h16.36v23.179H422.31z M438.67,433.647h-16.36v-23.179h16.36V433.647z M346.693,235.673h16.359
			v23.178h-16.359V235.673z M346.693,346.647v-23.179h16.359v23.179H346.693z M495.609,217.743v71.374H392.5v-54.531h-29.447
			h-16.359h-28.357v54.531h-27.22v-71.374h-37.081v279.201h37.081v-15.877h204.493v15.877h37.08V217.743H495.609z M363.053,433.647
			h-16.359v-23.179h16.359V433.647z M495.609,463.616h-27.492v-54.235H438.67h-16.36h-28.356v54.235H392.5v-54.235h-29.447h-16.359
			h-28.357v54.235h-27.22v-69.8h204.493V463.616z M495.609,376.366h-27.492v-53.985H438.67h-16.36h-28.356v53.985H392.5v-53.985
			h-29.447h-16.359h-28.357v53.985h-27.22v-69.799h204.493V376.366z"/>
		<path d="M425.232,349.399v-23.179h16.359v23.179H425.232z M441.592,436.398h-16.359v-23.178h16.359V436.398z M349.615,238.425
			h16.359v23.179h-16.359V238.425z M349.615,349.399v-23.179h16.359v23.179H349.615z M498.531,220.495v71.374H395.422v-54.531
			h-29.447h-16.359h-28.356v54.531h-27.22v-71.374h-37.081v279.201h37.081v-15.877h204.492v15.877h37.081V220.495H498.531z
			 M365.975,436.398h-16.359v-23.178h16.359V436.398z M498.531,466.368h-27.492v-54.235h-29.447h-16.359h-28.356v54.235h-1.454
			v-54.235h-29.447h-16.359h-28.356v54.235h-27.22v-69.8h204.492V466.368z M498.531,379.118h-27.492v-53.985h-29.447h-16.359
			h-28.356v53.985h-1.454v-53.985h-29.447h-16.359h-28.356v53.985h-27.22v-69.799h204.492V379.118z"/>
		<path d="M428.155,352.151v-23.179h16.359v23.179H428.155z M444.515,439.151h-16.359v-23.179h16.359V439.151z M352.538,241.178
			h16.359v23.178h-16.359V241.178z M352.538,352.151v-23.179h16.359v23.179H352.538z M501.454,223.247v71.374H398.345V240.09
			h-29.447h-16.359h-28.356v54.531h-27.22v-71.374h-37.081v279.201h37.081v-15.877h204.492v15.877h37.081V223.247H501.454z
			 M368.897,439.151h-16.359v-23.179h16.359V439.151z M501.454,469.12h-27.492v-54.235h-29.447h-16.359h-28.356v54.235h-1.454
			v-54.235h-29.447h-16.359h-28.356v54.235h-27.22v-69.8h204.492V469.12z M501.454,381.87h-27.492v-53.985h-29.447h-16.359h-28.356
			v53.985h-1.454v-53.985h-29.447h-16.359h-28.356v53.985h-27.22v-69.799h204.492V381.87z"/>
		<path d="M431.078,354.904v-23.18h16.359v23.18H431.078z M447.438,441.904h-16.359v-23.18h16.359V441.904z M355.461,243.93h16.359
			v23.179h-16.359V243.93z M355.461,354.904v-23.18h16.359v23.18H355.461z M504.377,225.999v71.374H401.268v-54.531H371.82h-16.359
			h-28.356v54.531h-27.22v-71.374h-37.081V505.2h37.081v-15.877h204.492V505.2h37.081V225.999H504.377z M371.82,441.904h-16.359
			v-23.18h16.359V441.904z M504.377,471.872h-27.492v-54.235h-29.447h-16.359h-28.356v54.235h-1.454v-54.235H371.82h-16.359h-28.356
			v54.235h-27.22v-69.8h204.492V471.872z M504.377,384.622h-27.492v-53.984h-29.447h-16.359h-28.356v53.984h-1.454v-53.984H371.82
			h-16.359h-28.356v53.984h-27.22v-69.799h204.492V384.622z"/>
		<path d="M434,357.655v-23.179h16.36v23.179H434z M450.36,444.655H434v-23.179h16.36V444.655z M358.384,246.682h16.358v23.178
			h-16.358V246.682z M358.384,357.655v-23.179h16.358v23.179H358.384z M507.299,228.751v71.374H404.189v-54.531h-29.447h-16.358
			h-28.356v54.531h-27.221v-71.374h-37.081v279.202h37.081v-15.878h204.492v15.878h37.082V228.751H507.299z M374.742,444.655
			h-16.358v-23.179h16.358V444.655z M507.299,474.624h-27.492v-54.235H450.36H434h-28.356v54.235h-1.454v-54.235h-29.447h-16.358
			h-28.356v54.235h-27.221v-69.8h204.492V474.624z M507.299,387.374h-27.492v-53.985H450.36H434h-28.356v53.985h-1.454v-53.985
			h-29.447h-16.358h-28.356v53.985h-27.221v-69.799h204.492V387.374z"/>
		<path d="M436.923,360.407v-23.179h16.359v23.179H436.923z M453.282,447.407h-16.359v-23.179h16.359V447.407z M361.306,249.433
			h16.359v23.178h-16.359V249.433z M361.306,360.407v-23.179h16.359v23.179H361.306z M510.222,231.503v71.374H407.112v-54.531
			h-29.447h-16.359h-28.356v54.531h-27.22v-71.374h-37.081v279.201h37.081v-15.877h204.492v15.877h37.081V231.503H510.222z
			 M377.665,447.407h-16.359v-23.179h16.359V447.407z M510.222,477.376h-27.492v-54.235h-29.447h-16.359h-28.356v54.235h-1.454
			v-54.235h-29.447h-16.359h-28.356v54.235h-27.22v-69.8h204.492V477.376z M510.222,390.126h-27.492v-53.985h-29.447h-16.359
			h-28.356v53.985h-1.454v-53.985h-29.447h-16.359h-28.356v53.985h-27.22v-69.799h204.492V390.126z"/>
		<path d="M439.846,363.159V339.98h16.359v23.179H439.846z M456.205,450.159h-16.359V426.98h16.359V450.159z M364.229,252.186
			h16.359v23.178h-16.359V252.186z M364.229,363.159V339.98h16.359v23.179H364.229z M513.145,234.255v71.374H410.035v-54.531
			h-29.447h-16.359h-28.356v54.531h-27.22v-71.374h-37.081v279.202h37.081v-15.878h204.492v15.878h37.081V234.255H513.145z
			 M380.588,450.159h-16.359V426.98h16.359V450.159z M513.145,480.128h-27.492v-54.235h-29.447h-16.359h-28.356v54.235h-1.454
			v-54.235h-29.447h-16.359h-28.356v54.235h-27.22v-69.8h204.492V480.128z M513.145,392.879h-27.492v-53.986h-29.447h-16.359
			h-28.356v53.986h-1.454v-53.986h-29.447h-16.359h-28.356v53.986h-27.22v-69.8h204.492V392.879z"/>
		<path d="M442.769,365.912v-23.18h16.359v23.18H442.769z M459.128,452.912h-16.359v-23.18h16.359V452.912z M367.151,254.938h16.359
			v23.178h-16.359V254.938z M367.151,365.912v-23.18h16.359v23.18H367.151z M516.067,237.007v71.374H412.958v-54.53h-29.447h-16.359
			h-28.356v54.53h-27.22v-71.374h-37.081v279.202h37.081v-15.877h204.492v15.877h37.081V237.007H516.067z M383.511,452.912h-16.359
			v-23.18h16.359V452.912z M516.067,482.881h-27.492v-54.235h-29.447h-16.359h-28.356v54.235h-1.454v-54.235h-29.447h-16.359
			h-28.356v54.235h-27.22V413.08h204.492V482.881z M516.067,395.631h-27.492v-53.985h-29.447h-16.359h-28.356v53.985h-1.454v-53.985
			h-29.447h-16.359h-28.356v53.985h-27.22v-69.799h204.492V395.631z"/>
		<path d="M445.691,368.663v-23.179h16.358v23.179H445.691z M462.05,455.664h-16.358v-23.18h16.358V455.664z M370.074,257.689
			h16.358v23.178h-16.358V257.689z M370.074,368.663v-23.179h16.358v23.179H370.074z M518.989,239.759v71.374H415.881v-54.531
			h-29.448h-16.358h-28.356v54.531h-27.22v-71.374h-37.082v279.202h37.082v-15.877h204.491v15.877h37.081V239.759H518.989z
			 M386.433,455.664h-16.358v-23.18h16.358V455.664z M518.989,485.632h-27.491v-54.235H462.05h-16.358h-28.356v54.235h-1.454
			v-54.235h-29.448h-16.358h-28.356v54.235h-27.22v-69.8h204.491V485.632z M518.989,398.383h-27.491v-53.985H462.05h-16.358h-28.356
			v53.985h-1.454v-53.985h-29.448h-16.358h-28.356v53.985h-27.22v-69.799h204.491V398.383z"/>
		<path d="M448.613,371.415v-23.179h16.359v23.179H448.613z M464.973,458.415h-16.359v-23.179h16.359V458.415z M372.996,260.441
			h16.359v23.178h-16.359V260.441z M372.996,371.415v-23.179h16.359v23.179H372.996z M521.912,242.511v71.374H418.803v-54.531
			h-29.447h-16.359H344.64v54.531h-27.22v-71.374h-37.081v279.201h37.081v-15.877h204.492v15.877h37.081V242.511H521.912z
			 M389.355,458.415h-16.359v-23.179h16.359V458.415z M521.912,488.384H494.42v-54.235h-29.447h-16.359h-28.356v54.235h-1.454
			v-54.235h-29.447h-16.359H344.64v54.235h-27.22v-69.8h204.492V488.384z M521.912,401.134H494.42v-53.985h-29.447h-16.359h-28.356
			v53.985h-1.454v-53.985h-29.447h-16.359H344.64v53.985h-27.22v-69.799h204.492V401.134z"/>
		<path d="M451.536,374.168v-23.18h16.359v23.18H451.536z M467.896,461.168h-16.359v-23.18h16.359V461.168z M375.919,263.193h16.359
			v23.179h-16.359V263.193z M375.919,374.168v-23.18h16.359v23.18H375.919z M524.835,245.263v71.374H421.726v-54.531h-29.447
			h-16.359h-28.356v54.531h-27.22v-71.374h-37.081v279.202h37.081v-15.877h204.492v15.877h37.081V245.263H524.835z M392.278,461.168
			h-16.359v-23.18h16.359V461.168z M524.835,491.136h-27.492V436.9h-29.447h-16.359H423.18v54.235h-1.454V436.9h-29.447h-16.359
			h-28.356v54.235h-27.22v-69.799h204.492V491.136z M524.835,403.887h-27.492v-53.985h-29.447h-16.359H423.18v53.985h-1.454v-53.985
			h-29.447h-16.359h-28.356v53.985h-27.22v-69.8h204.492V403.887z"/>
		<path d="M454.459,376.92v-23.179h16.359v23.179H454.459z M470.818,463.92h-16.359v-23.18h16.359V463.92z M378.842,265.945h16.359
			v23.179h-16.359V265.945z M378.842,376.92v-23.179h16.359v23.179H378.842z M527.758,248.016v71.373H424.648v-54.53h-29.447
			h-16.359h-28.356v54.53h-27.22v-71.373h-37.081v279.201h37.081V511.34h204.492v15.877h37.081V248.016H527.758z M395.201,463.92
			h-16.359v-23.18h16.359V463.92z M527.758,493.889h-27.492v-54.236h-29.447h-16.359h-28.356v54.236h-1.454v-54.236h-29.447h-16.359
			h-28.356v54.236h-27.22v-69.8h204.492V493.889z M527.758,406.639h-27.492v-53.985h-29.447h-16.359h-28.356v53.985h-1.454v-53.985
			h-29.447h-16.359h-28.356v53.985h-27.22V336.84h204.492V406.639z"/>
		<path d="M457.381,379.672v-23.179h16.359v23.179H457.381z M473.74,466.672h-16.359v-23.18h16.359V466.672z M381.765,268.697
			h16.358v23.179h-16.358V268.697z M381.765,379.672v-23.179h16.358v23.179H381.765z M530.68,250.767v71.374H427.57v-54.53h-29.447
			h-16.358h-28.356v54.53h-27.22v-71.374h-37.081v279.202h37.081v-15.878H530.68v15.878h37.082V250.767H530.68z M398.123,466.672
			h-16.358v-23.18h16.358V466.672z M530.68,496.641h-27.492v-54.236H473.74h-16.359h-28.355v54.236h-1.455v-54.236h-29.447h-16.358
			h-28.356v54.236h-27.22V426.84H530.68V496.641z M530.68,409.391h-27.492v-53.985H473.74h-16.359h-28.355v53.985h-1.455v-53.985
			h-29.447h-16.358h-28.356v53.985h-27.22v-69.8H530.68V409.391z"/>
		<path d="M460.304,382.423v-23.179h16.359v23.179H460.304z M476.663,469.424h-16.359v-23.18h16.359V469.424z M384.687,271.449
			h16.359v23.178h-16.359V271.449z M384.687,382.423v-23.179h16.359v23.179H384.687z M533.603,253.519v71.374H430.493v-54.531
			h-29.447h-16.359H356.33v54.531h-27.22v-71.374h-37.081V532.72h37.081v-15.876h204.492v15.876h37.081V253.519H533.603z
			 M401.046,469.424h-16.359v-23.18h16.359V469.424z M533.603,499.392H506.11v-54.235h-29.447h-16.359h-28.356v54.235h-1.454
			v-54.235h-29.447h-16.359H356.33v54.235h-27.22v-69.8h204.492V499.392z M533.603,412.142H506.11v-53.985h-29.447h-16.359h-28.356
			v53.985h-1.454v-53.985h-29.447h-16.359H356.33v53.985h-27.22v-69.799h204.492V412.142z"/>
		<path d="M463.227,385.176v-23.18h16.359v23.18H463.227z M479.586,472.176h-16.359v-23.179h16.359V472.176z M387.609,274.201
			h16.359v23.179h-16.359V274.201z M387.609,385.176v-23.18h16.359v23.18H387.609z M536.525,256.271v71.373H433.416v-54.53h-29.447
			h-16.359h-28.356v54.53h-27.22v-71.373h-37.081v279.201h37.081v-15.877h204.492v15.877h37.081V256.271H536.525z M403.969,472.176
			h-16.359v-23.179h16.359V472.176z M536.525,502.145h-27.492v-54.236h-29.447h-16.359H434.87v54.236h-1.454v-54.236h-29.447
			h-16.359h-28.356v54.236h-27.22v-69.801h204.492V502.145z M536.525,414.895h-27.492v-53.985h-29.447h-16.359H434.87v53.985h-1.454
			v-53.985h-29.447h-16.359h-28.356v53.985h-27.22v-69.799h204.492V414.895z"/>
		<path d="M466.149,387.928v-23.179h16.359v23.179H466.149z M482.509,474.928h-16.359v-23.179h16.359V474.928z M390.532,276.953
			h16.359v23.179h-16.359V276.953z M390.532,387.928v-23.179h16.359v23.179H390.532z M539.448,259.023v71.373H436.339v-54.53
			h-29.447h-16.359h-28.356v54.53h-27.22v-71.373h-37.081v279.201h37.081v-15.877h204.492v15.877h37.081V259.023H539.448z
			 M406.892,474.928h-16.359v-23.179h16.359V474.928z M539.448,504.896h-27.492v-54.235h-29.447h-16.359h-28.356v54.235h-1.454
			v-54.235h-29.447h-16.359h-28.356v54.235h-27.22v-69.801h204.492V504.896z M539.448,417.646h-27.492v-53.984h-29.447h-16.359
			h-28.356v53.984h-1.454v-53.984h-29.447h-16.359h-28.356v53.984h-27.22v-69.799h204.492V417.646z"/>
		<path d="M469.072,390.68v-23.179h16.359v23.179H469.072z M485.432,477.68h-16.359V454.5h16.359V477.68z M393.455,279.706h16.359
			v23.178h-16.359V279.706z M393.455,390.68v-23.179h16.359v23.179H393.455z M542.371,261.775v71.373H439.262v-54.53h-29.447
			h-16.359h-28.356v54.53h-27.22v-71.373h-37.082v279.201h37.082V525.1h204.492v15.877h37.08V261.775H542.371z M409.814,477.68
			h-16.359V454.5h16.359V477.68z M542.371,507.648h-27.492v-54.236h-29.447h-16.359h-28.357v54.236h-1.453v-54.236h-29.447h-16.359
			h-28.356v54.236h-27.22v-69.8h204.492V507.648z M542.371,420.398h-27.492v-53.985h-29.447h-16.359h-28.357v53.985h-1.453v-53.985
			h-29.447h-16.359h-28.356v53.985h-27.22V350.6h204.492V420.398z"/>
		<path d="M471.994,393.432v-23.179h16.359v23.179H471.994z M488.354,480.432h-16.359v-23.179h16.359V480.432z M396.377,282.457
			h16.359v23.179h-16.359V282.457z M396.377,393.432v-23.179h16.359v23.179H396.377z M545.293,264.527V335.9H442.184v-54.53h-29.447
			h-16.359h-28.356v54.53h-27.22v-71.373h-37.08v279.201h37.08v-15.877h204.492v15.877h37.081V264.527H545.293z M412.736,480.432
			h-16.359v-23.179h16.359V480.432z M545.293,510.4h-27.492v-54.235h-29.447h-16.359h-28.356V510.4h-1.454v-54.235h-29.447h-16.359
			h-28.356V510.4h-27.22v-69.8h204.492V510.4z M545.293,423.15h-27.492v-53.985h-29.447h-16.359h-28.356v53.985h-1.454v-53.985
			h-29.447h-16.359h-28.356v53.985h-27.22v-69.799h204.492V423.15z"/>
		<path d="M474.917,396.184v-23.179h16.359v23.179H474.917z M491.276,483.184h-16.359v-23.179h16.359V483.184z M399.3,285.209
			h16.359v23.179H399.3V285.209z M399.3,396.184v-23.179h16.359v23.179H399.3z M548.216,267.279v71.373H445.106v-54.53h-29.447
			H399.3h-28.356v54.53h-27.22v-71.373h-37.081V546.48h37.081v-15.877h204.492v15.877h37.081V267.279H548.216z M415.659,483.184
			H399.3v-23.179h16.359V483.184z M548.216,513.152h-27.492v-54.235h-29.447h-16.359h-28.356v54.235h-1.454v-54.235h-29.447H399.3
			h-28.356v54.235h-27.22v-69.8h204.492V513.152z M548.216,425.902h-27.492v-53.985h-29.447h-16.359h-28.356v53.985h-1.454v-53.985
			h-29.447H399.3h-28.356v53.985h-27.22v-69.799h204.492V425.902z"/>
		<path d="M477.84,398.936v-23.179h16.359v23.179H477.84z M494.199,485.936H477.84v-23.179h16.359V485.936z M402.223,287.961h16.359
			v23.179h-16.359V287.961z M402.223,398.936v-23.179h16.359v23.179H402.223z M551.139,270.031v71.374H448.029v-54.531h-29.447
			h-16.359h-28.357v54.531h-27.219v-71.374h-37.081v279.201h37.081v-15.877h204.492v15.877h37.081V270.031H551.139z
			 M418.582,485.936h-16.359v-23.179h16.359V485.936z M551.139,515.904h-27.492v-54.235h-29.447H477.84h-28.357v54.235h-1.453
			v-54.235h-29.447h-16.359h-28.357v54.235h-27.219v-69.8h204.492V515.904z M551.139,428.654h-27.492v-53.985h-29.447H477.84
			h-28.357v53.985h-1.453v-53.985h-29.447h-16.359h-28.357v53.985h-27.219v-69.799h204.492V428.654z"/>
		<path d="M480.762,401.688v-23.179h16.359v23.179H480.762z M497.121,488.688h-16.359v-23.179h16.359V488.688z M405.145,290.713
			h16.359v23.179h-16.359V290.713z M405.145,401.688v-23.179h16.359v23.179H405.145z M554.061,272.783v71.373H450.951v-54.53
			h-29.447h-16.359h-28.355v54.53h-27.221v-71.373h-37.08v279.201h37.08v-15.877h204.492v15.877h37.082V272.783H554.061z
			 M421.504,488.688h-16.359v-23.179h16.359V488.688z M554.061,518.656h-27.492v-54.235h-29.447h-16.359h-28.355v54.235h-1.455
			v-54.235h-29.447h-16.359h-28.355v54.235h-27.221v-69.8h204.492V518.656z M554.061,431.406h-27.492v-53.985h-29.447h-16.359
			h-28.355v53.985h-1.455v-53.985h-29.447h-16.359h-28.355v53.985h-27.221v-69.799h204.492V431.406z"/>
		<path d="M483.685,404.439v-23.179h16.359v23.179H483.685z M500.044,491.439h-16.359v-23.179h16.359V491.439z M408.067,293.466
			h16.359v23.178h-16.359V293.466z M408.067,404.439v-23.179h16.359v23.179H408.067z M556.983,275.535v71.374H453.875v-54.531
			h-29.448h-16.359h-28.356v54.531h-27.22v-71.374H315.41v279.201h37.081v-15.877h204.492v15.877h37.081V275.535H556.983z
			 M424.427,491.439h-16.359v-23.179h16.359V491.439z M556.983,521.408h-27.491v-54.235h-29.448h-16.359h-28.356v54.235h-1.453
			v-54.235h-29.448h-16.359h-28.356v54.235h-27.22v-69.8h204.492V521.408z M556.983,434.158h-27.491v-53.985h-29.448h-16.359
			h-28.356v53.985h-1.453v-53.985h-29.448h-16.359h-28.356v53.985h-27.22v-69.799h204.492V434.158z"/>
		<path d="M486.607,407.191v-23.179h16.359v23.179H486.607z M502.967,494.191h-16.359v-23.179h16.359V494.191z M410.99,296.218
			h16.359v23.178H410.99V296.218z M410.99,407.191v-23.179h16.359v23.179H410.99z M559.906,278.287v71.373H456.797v-54.53H427.35
			H410.99h-28.356v54.53h-27.22v-71.373h-37.081v279.201h37.081v-15.877h204.492v15.877h37.081V278.287H559.906z M427.35,494.191
			H410.99v-23.179h16.359V494.191z M559.906,524.16h-27.492v-54.235h-29.447h-16.359h-28.356v54.235h-1.454v-54.235H427.35H410.99
			h-28.356v54.235h-27.22v-69.8h204.492V524.16z M559.906,436.91h-27.492v-53.985h-29.447h-16.359h-28.356v53.985h-1.454v-53.985
			H427.35H410.99h-28.356v53.985h-27.22v-69.799h204.492V436.91z"/>
		<path d="M489.53,409.943v-23.179h16.359v23.179H489.53z M505.89,496.943H489.53v-23.179h16.359V496.943z M413.913,298.97h16.359
			v23.178h-16.359V298.97z M413.913,409.943v-23.179h16.359v23.179H413.913z M562.829,281.039v71.374H459.72v-54.531h-29.447
			h-16.359h-28.356v54.531h-27.22v-71.374h-37.081V560.24h37.081v-15.877h204.492v15.877h37.081V281.039H562.829z M430.272,496.943
			h-16.359v-23.179h16.359V496.943z M562.829,526.912h-27.492v-54.235H505.89H489.53h-28.356v54.235h-1.454v-54.235h-29.447h-16.359
			h-28.356v54.235h-27.22v-69.8h204.492V526.912z M562.829,439.662h-27.492v-53.985H505.89H489.53h-28.356v53.985h-1.454v-53.985
			h-29.447h-16.359h-28.356v53.985h-27.22v-69.799h204.492V439.662z"/>
		<path d="M492.453,412.695v-23.179h16.359v23.179H492.453z M508.813,499.695h-16.359v-23.179h16.359V499.695z M416.836,301.722
			h16.359V324.9h-16.359V301.722z M416.836,412.695v-23.179h16.359v23.179H416.836z M565.752,283.791v71.374H462.643v-54.531
			h-29.447h-16.359h-28.356v54.531h-27.22v-71.374h-37.082v279.201h37.082v-15.877h204.492v15.877h37.08V283.791H565.752z
			 M433.195,499.695h-16.359v-23.179h16.359V499.695z M565.752,529.664H538.26v-54.235h-29.447h-16.359h-28.356v54.235h-1.454
			v-54.235h-29.447h-16.359h-28.356v54.235h-27.22v-69.8h204.492V529.664z M565.752,442.414H538.26V388.43h-29.447h-16.359h-28.356
			v53.984h-1.454V388.43h-29.447h-16.359h-28.356v53.984h-27.22v-69.799h204.492V442.414z"/>
		<path d="M495.375,415.447v-23.179h16.359v23.179H495.375z M511.734,502.447h-16.359v-23.179h16.359V502.447z M419.758,304.474
			h16.359v23.178h-16.359V304.474z M419.758,415.447v-23.179h16.359v23.179H419.758z M568.674,286.543v71.374H465.564v-54.531
			h-29.447h-16.359h-28.356v54.531h-27.22v-71.374h-37.081v279.201h37.081v-15.877h204.492v15.877h37.082V286.543H568.674z
			 M436.117,502.447h-16.359v-23.179h16.359V502.447z M568.674,532.416h-27.492v-54.235h-29.447h-16.359H467.02v54.235h-1.455
			v-54.235h-29.447h-16.359h-28.356v54.235h-27.22v-69.8h204.492V532.416z M568.674,445.166h-27.492v-53.985h-29.447h-16.359H467.02
			v53.985h-1.455v-53.985h-29.447h-16.359h-28.356v53.985h-27.22v-69.799h204.492V445.166z"/>
		<path d="M498.298,418.199v-23.179h16.359v23.179H498.298z M514.657,505.199h-16.359v-23.179h16.359V505.199z M422.681,307.226
			h16.359v23.179h-16.359V307.226z M422.681,418.199v-23.179h16.359v23.179H422.681z M571.597,289.295v71.374H468.487v-54.53H439.04
			h-16.359h-28.356v54.53h-27.22v-71.374h-37.081v279.201h37.081v-15.877h204.492v15.877h37.081V289.295H571.597z M439.04,505.199
			h-16.359v-23.179h16.359V505.199z M571.597,535.168h-27.492v-54.234h-29.447h-16.359h-28.356v54.234h-1.454v-54.234H439.04
			h-16.359h-28.356v54.234h-27.22v-69.8h204.492V535.168z M571.597,447.918h-27.492v-53.984h-29.447h-16.359h-28.356v53.984h-1.454
			v-53.984H439.04h-16.359h-28.356v53.984h-27.22v-69.799h204.492V447.918z"/>
		<path d="M501.221,420.951v-23.179h16.359v23.179H501.221z M517.58,507.951h-16.359v-23.179h16.359V507.951z M425.604,309.978
			h16.359v23.179h-16.359V309.978z M425.604,420.951v-23.179h16.359v23.179H425.604z M574.52,292.047v71.374H471.41v-54.53h-29.447
			h-16.359h-28.356v54.53h-27.22v-71.374h-37.081v279.201h37.081v-15.877H574.52v15.877h37.081V292.047H574.52z M441.963,507.951
			h-16.359v-23.179h16.359V507.951z M574.52,537.92h-27.492v-54.235H517.58h-16.359h-28.356v54.235h-1.454v-54.235h-29.447h-16.359
			h-28.356v54.235h-27.22v-69.8H574.52V537.92z M574.52,450.67h-27.492v-53.985H517.58h-16.359h-28.356v53.985h-1.454v-53.985
			h-29.447h-16.359h-28.356v53.985h-27.22v-69.799H574.52V450.67z"/>
		<path d="M504.144,423.703v-23.178h16.359v23.178H504.144z M520.503,510.703h-16.359v-23.179h16.359V510.703z M428.525,312.729
			h16.36v23.179h-16.36V312.729z M428.525,423.703v-23.178h16.36v23.178H428.525z M577.441,294.799v71.374H474.333v-54.53h-29.447
			h-16.36H400.17v54.53h-27.22v-71.374h-37.081V574h37.081v-15.877h204.491V574h37.082V294.799H577.441z M444.886,510.703h-16.36
			v-23.179h16.36V510.703z M577.441,540.672H549.95v-54.235h-29.447h-16.359h-28.356v54.235h-1.454v-54.235h-29.447h-16.36H400.17
			v54.235h-27.22v-69.799h204.491V540.672z M577.441,453.422H549.95v-53.984h-29.447h-16.359h-28.356v53.984h-1.454v-53.984h-29.447
			h-16.36H400.17v53.984h-27.22v-69.799h204.491V453.422z"/>
		<path d="M507.066,426.455v-23.179h16.359v23.179H507.066z M523.426,513.455h-16.359v-23.178h16.359V513.455z M431.448,315.481
			h16.36v23.179h-16.36V315.481z M431.448,426.455v-23.179h16.36v23.179H431.448z M580.365,297.551v71.374H477.256v-54.53h-29.447
			h-16.36h-28.356v54.53h-27.219v-71.374h-37.082v279.201h37.082v-15.877h204.492v15.877h37.081V297.551H580.365z M447.809,513.455
			h-16.36v-23.178h16.36V513.455z M580.365,543.424h-27.492v-54.235h-29.447h-16.359H478.71v54.235h-1.454v-54.235h-29.447h-16.36
			h-28.356v54.235h-27.219v-69.799h204.492V543.424z M580.365,456.174h-27.492v-53.985h-29.447h-16.359H478.71v53.985h-1.454
			v-53.985h-29.447h-16.36h-28.356v53.985h-27.219v-69.799h204.492V456.174z"/>
		<path d="M509.988,429.207v-23.179h16.359v23.179H509.988z M526.348,516.207h-16.359v-23.178h16.359V516.207z M434.371,318.233
			h16.359v23.179h-16.359V318.233z M434.371,429.207v-23.179h16.359v23.179H434.371z M583.287,300.304v71.374H480.178v-54.531
			H450.73h-16.359h-28.356v54.531h-27.22v-71.374h-37.081v279.2h37.081v-15.876h204.492v15.876h37.081v-279.2H583.287z
			 M450.73,516.207h-16.359v-23.178h16.359V516.207z M583.287,546.176h-27.492V491.94h-29.447h-16.359h-28.356v54.235h-1.454V491.94
			H450.73h-16.359h-28.356v54.235h-27.22v-69.799h204.492V546.176z M583.287,458.926h-27.492v-53.984h-29.447h-16.359h-28.356
			v53.984h-1.454v-53.984H450.73h-16.359h-28.356v53.984h-27.22v-69.799h204.492V458.926z"/>
		<path d="M512.911,431.959v-23.178h16.359v23.178H512.911z M529.271,518.96h-16.359v-23.18h16.359V518.96z M437.294,320.985h16.359
			v23.179h-16.359V320.985z M437.294,431.959v-23.178h16.359v23.178H437.294z M586.21,303.055v71.374H483.101v-54.53h-29.447
			h-16.359h-28.356v54.53h-27.22v-71.374h-37.081v279.201h37.081v-15.877H586.21v15.877h37.081V303.055H586.21z M453.653,518.96
			h-16.359v-23.18h16.359V518.96z M586.21,548.928h-27.492v-54.234h-29.447h-16.359h-28.356v54.234h-1.454v-54.234h-29.447h-16.359
			h-28.356v54.234h-27.22v-69.799H586.21V548.928z M586.21,461.678h-27.492v-53.984h-29.447h-16.359h-28.356v53.984h-1.454v-53.984
			h-29.447h-16.359h-28.356v53.984h-27.22V391.88H586.21V461.678z"/>
		<path d="M515.834,434.711v-23.178h16.359v23.178H515.834z M532.193,521.711h-16.359v-23.178h16.359V521.711z M440.217,323.737
			h16.359v23.179h-16.359V323.737z M440.217,434.711v-23.178h16.359v23.178H440.217z M589.133,305.807v71.375H486.023V322.65
			h-29.447h-16.359h-28.357v54.531h-27.219v-71.375H347.56v279.202h37.081v-15.878h204.492v15.878h37.08V305.807H589.133z
			 M456.576,521.711h-16.359v-23.178h16.359V521.711z M589.133,551.681h-27.492v-54.235h-29.447h-16.359h-28.356v54.235h-1.454
			v-54.235h-29.447h-16.359h-28.357v54.235h-27.219v-69.8h204.492V551.681z M589.133,464.43h-27.492v-53.984h-29.447h-16.359
			h-28.356v53.984h-1.454v-53.984h-29.447h-16.359h-28.357v53.984h-27.219v-69.799h204.492V464.43z"/>
		<path d="M518.757,437.463v-23.179h16.358v23.179H518.757z M535.115,524.464h-16.358v-23.179h16.358V524.464z M443.139,326.49
			h16.359v23.178h-16.359V326.49z M443.139,437.463v-23.179h16.359v23.179H443.139z M592.055,308.559v71.374H488.946v-54.53h-29.448
			h-16.359h-28.355v54.53h-27.221v-71.374h-37.081V587.76h37.081v-15.876h204.492v15.876h37.082V308.559H592.055z M459.498,524.464
			h-16.359v-23.179h16.359V524.464z M592.055,554.432h-27.492v-54.234h-29.447h-16.358h-28.357v54.234h-1.453v-54.234h-29.448
			h-16.359h-28.355v54.234h-27.221v-69.8h204.492V554.432z M592.055,467.182h-27.492v-53.984h-29.447h-16.358h-28.357v53.984h-1.453
			v-53.984h-29.448h-16.359h-28.355v53.984h-27.221v-69.798h204.492V467.182z"/>
		<path d="M521.68,440.215v-23.178h16.358v23.178H521.68z M538.038,527.215H521.68v-23.178h16.358V527.215z M446.063,329.242h16.358
			v23.178h-16.358V329.242z M446.063,440.215v-23.178h16.358v23.178H446.063z M594.979,311.311v71.375h-103.11v-54.531h-29.447
			h-16.358h-28.357v54.531h-27.219v-71.375h-37.082v279.202h37.082v-15.878h204.492v15.878h37.08V311.311H594.979z M462.421,527.215
			h-16.358v-23.178h16.358V527.215z M594.979,557.185h-27.492v-54.235h-29.448H521.68h-28.357v54.235h-1.454v-54.235h-29.447
			h-16.358h-28.357v54.235h-27.219v-69.8h204.492V557.185z M594.979,469.934h-27.492v-53.984h-29.448H521.68h-28.357v53.984h-1.454
			v-53.984h-29.447h-16.358h-28.357v53.984h-27.219v-69.798h204.492V469.934z"/>
		<path d="M524.602,442.967v-23.178h16.359v23.178H524.602z M540.961,529.968h-16.359v-23.179h16.359V529.968z M448.984,331.994
			h16.359v23.178h-16.359V331.994z M448.984,442.967v-23.178h16.359v23.178H448.984z M597.9,314.063v71.375H494.791v-54.531h-29.447
			h-16.359h-28.356v54.531h-27.22v-71.375h-37.081v279.201h37.081v-15.876H597.9v15.876h37.081V314.063H597.9z M465.344,529.968
			h-16.359v-23.179h16.359V529.968z M597.9,559.936h-27.492v-54.234h-29.447h-16.359h-28.356v54.234h-1.454v-54.234h-29.447h-16.359
			h-28.356v54.234h-27.22v-69.799H597.9V559.936z M597.9,472.686h-27.492v-53.984h-29.447h-16.359h-28.356v53.984h-1.454v-53.984
			h-29.447h-16.359h-28.356v53.984h-27.22v-69.799H597.9V472.686z"/>
		<path d="M527.524,445.72v-23.179h16.359v23.179H527.524z M543.884,532.719h-16.359v-23.178h16.359V532.719z M451.907,334.746
			h16.359v23.178h-16.359V334.746z M451.907,445.72v-23.179h16.359v23.179H451.907z M600.823,316.814v71.375H497.714v-54.531
			h-29.447h-16.359h-28.356v54.531h-27.22v-71.375H359.25v279.202h37.081v-15.878h204.492v15.878h37.081V316.814H600.823z
			 M468.267,532.719h-16.359v-23.178h16.359V532.719z M600.823,562.688h-27.492v-54.235h-29.447h-16.359h-28.356v54.235h-1.454
			v-54.235h-29.447h-16.359h-28.356v54.235h-27.22v-69.8h204.492V562.688z M600.823,475.438h-27.492v-53.985h-29.447h-16.359
			h-28.356v53.985h-1.454v-53.985h-29.447h-16.359h-28.356v53.985h-27.22V405.64h204.492V475.438z"/>
		<path d="M530.447,448.472v-23.179h16.359v23.179H530.447z M546.807,535.472h-16.359v-23.179h16.359V535.472z M454.829,337.498
			h16.36v23.178h-16.36V337.498z M454.829,448.472v-23.179h16.36v23.179H454.829z M603.746,319.567v71.374H500.637V336.41h-29.447
			h-16.36h-28.355v54.531h-27.22v-71.374h-37.081v279.2h37.081v-15.876h204.492v15.876h37.081v-279.2H603.746z M471.189,535.472
			h-16.36v-23.179h16.36V535.472z M603.746,565.439h-27.492v-54.234h-29.447h-16.359H502.09v54.234h-1.453v-54.234h-29.447h-16.36
			h-28.355v54.234h-27.22v-69.799h204.492V565.439z M603.746,478.19h-27.492v-53.985h-29.447h-16.359H502.09v53.985h-1.453v-53.985
			h-29.447h-16.36h-28.355v53.985h-27.22v-69.799h204.492V478.19z"/>
		<path d="M533.369,451.224v-23.179h16.359v23.179H533.369z M549.729,538.224h-16.359v-23.179h16.359V538.224z M457.752,340.25
			h16.359v23.178h-16.359V340.25z M457.752,451.224v-23.179h16.359v23.179H457.752z M606.668,322.319v71.374H503.559v-54.531
			h-29.447h-16.359h-28.356v54.531h-27.22v-71.374h-37.081v279.201h37.081v-15.877h204.492v15.877h37.081V322.319H606.668z
			 M474.111,538.224h-16.359v-23.179h16.359V538.224z M606.668,568.192h-27.492v-54.235h-29.447h-16.359h-28.355v54.235h-1.455
			v-54.235h-29.447h-16.359h-28.356v54.235h-27.22v-69.8h204.492V568.192z M606.668,480.942h-27.492v-53.985h-29.447h-16.359
			h-28.355v53.985h-1.455v-53.985h-29.447h-16.359h-28.356v53.985h-27.22v-69.799h204.492V480.942z"/>
		<path d="M536.292,453.976v-23.179h16.359v23.179H536.292z M552.651,540.976h-16.359v-23.179h16.359V540.976z M460.675,343.002
			h16.359v23.178h-16.359V343.002z M460.675,453.976v-23.179h16.359v23.179H460.675z M609.591,325.071v71.374H506.481v-54.531
			h-29.447h-16.359h-28.356v54.531h-27.22v-71.374h-37.081v279.201h37.081v-15.877h204.492v15.877h37.081V325.071H609.591z
			 M477.034,540.976h-16.359v-23.179h16.359V540.976z M609.591,570.944h-27.492v-54.235h-29.447h-16.359h-28.356v54.235h-1.454
			v-54.235h-29.447h-16.359h-28.356v54.235h-27.22v-69.8h204.492V570.944z M609.591,483.694h-27.492v-53.985h-29.447h-16.359
			h-28.356v53.985h-1.454v-53.985h-29.447h-16.359h-28.356v53.985h-27.22v-69.799h204.492V483.694z"/>
		<path d="M539.215,456.728v-23.179h16.359v23.179H539.215z M555.574,543.728h-16.359v-23.179h16.359V543.728z M463.598,345.754
			h16.359v23.178h-16.359V345.754z M463.598,456.728v-23.179h16.359v23.179H463.598z M612.514,327.823v71.374H509.404v-54.531
			h-29.447h-16.359h-28.356v54.531h-27.22v-71.374H370.94v279.201h37.081v-15.877h204.492v15.877h37.081V327.823H612.514z
			 M479.957,543.728h-16.359v-23.179h16.359V543.728z M612.514,573.696h-27.492v-54.235h-29.447h-16.359h-28.356v54.235h-1.454
			v-54.235h-29.447h-16.359h-28.356v54.235h-27.22v-69.8h204.492V573.696z M612.514,486.446h-27.492v-53.985h-29.447h-16.359
			h-28.356v53.985h-1.454v-53.985h-29.447h-16.359h-28.356v53.985h-27.22v-69.799h204.492V486.446z"/>
		<path d="M542.137,459.479v-23.179h16.36v23.179H542.137z M558.497,546.479h-16.36v-23.179h16.36V546.479z M466.521,348.506h16.359
			v23.178h-16.359V348.506z M466.521,459.479v-23.179h16.359v23.179H466.521z M615.437,330.575v71.374H512.327v-54.531H482.88
			h-16.359h-28.356v54.531h-27.22v-71.374h-37.081v279.201h37.081v-15.877h204.492v15.877h37.081V330.575H615.437z M482.88,546.479
			h-16.359v-23.179h16.359V546.479z M615.437,576.448h-27.492v-54.235h-29.447h-16.36h-28.355v54.235h-1.454v-54.235H482.88h-16.359
			h-28.356v54.235h-27.22v-69.8h204.492V576.448z M615.437,489.198h-27.492v-53.985h-29.447h-16.36h-28.355v53.985h-1.454v-53.985
			H482.88h-16.359h-28.356v53.985h-27.22v-69.799h204.492V489.198z"/>
		<path d="M545.061,462.231v-23.179h16.359v23.179H545.061z M561.42,549.231h-16.359v-23.179h16.359V549.231z M469.443,351.258
			h16.359v23.178h-16.359V351.258z M469.443,462.231v-23.179h16.359v23.179H469.443z M618.359,333.327v71.374H515.25V350.17h-29.447
			h-16.359h-28.357v54.531h-27.22v-71.374h-37.08v279.201h37.08v-15.877h204.493v15.877h37.08V333.327H618.359z M485.803,549.231
			h-16.359v-23.179h16.359V549.231z M618.359,579.2h-27.493v-54.235H561.42h-16.359h-28.357V579.2h-1.453v-54.235h-29.447h-16.359
			h-28.357V579.2h-27.22v-69.8h204.493V579.2z M618.359,491.95h-27.493v-53.985H561.42h-16.359h-28.357v53.985h-1.453v-53.985
			h-29.447h-16.359h-28.357v53.985h-27.22v-69.799h204.493V491.95z"/>
		<path d="M547.982,464.983v-23.179h16.359v23.179H547.982z M564.342,551.983h-16.359v-23.179h16.359V551.983z M472.365,354.01
			h16.359v23.178h-16.359V354.01z M472.365,464.983v-23.179h16.359v23.179H472.365z M621.281,336.079v71.374H518.172v-54.531
			h-29.447h-16.359H444.01v54.531h-27.221v-71.374h-37.081V615.28h37.081v-15.877h204.492v15.877h37.081V336.079H621.281z
			 M488.725,551.983h-16.359v-23.179h16.359V551.983z M621.281,581.952h-27.492v-54.235h-29.447h-16.359h-28.355v54.235h-1.455
			v-54.235h-29.447h-16.359H444.01v54.235h-27.221v-69.8h204.492V581.952z M621.281,494.702h-27.492v-53.985h-29.447h-16.359
			h-28.355v53.985h-1.455v-53.985h-29.447h-16.359H444.01v53.985h-27.221v-69.799h204.492V494.702z"/>
		<path d="M550.905,467.735v-23.179h16.359v23.179H550.905z M567.265,554.735h-16.359v-23.179h16.359V554.735z M475.288,356.762
			h16.359v23.178h-16.359V356.762z M475.288,467.735v-23.179h16.359v23.179H475.288z M624.204,338.831v71.374H521.095v-54.531
			h-29.447h-16.359h-28.356v54.531h-27.22v-71.374h-37.081v279.201h37.081v-15.877h204.492v15.877h37.081V338.831H624.204z
			 M491.647,554.735h-16.359v-23.179h16.359V554.735z M624.204,584.704h-27.492v-54.235h-29.447h-16.359h-28.356v54.235h-1.454
			v-54.235h-29.447h-16.359h-28.356v54.235h-27.22v-69.8h204.492V584.704z M624.204,497.454h-27.492v-53.985h-29.447h-16.359
			h-28.356v53.985h-1.454v-53.985h-29.447h-16.359h-28.356v53.985h-27.22v-69.799h204.492V497.454z"/>
		<path d="M553.828,470.487v-23.179h16.359v23.179H553.828z M570.188,557.487h-16.359v-23.179h16.359V557.487z M478.211,359.514
			h16.359v23.178h-16.359V359.514z M478.211,470.487v-23.179h16.359v23.179H478.211z M627.127,341.584v71.373H524.018v-54.531
			H494.57h-16.359h-28.356v54.531h-27.22v-71.373h-37.081v279.2h37.081v-15.877h204.492v15.877h37.081v-279.2H627.127z
			 M494.57,557.487h-16.359v-23.179h16.359V557.487z M627.127,587.457h-27.492v-54.236h-29.447h-16.359h-28.356v54.236h-1.454
			v-54.236H494.57h-16.359h-28.356v54.236h-27.22v-69.801h204.492V587.457z M627.127,500.206h-27.492v-53.985h-29.447h-16.359
			h-28.356v53.985h-1.454v-53.985H494.57h-16.359h-28.356v53.985h-27.22v-69.799h204.492V500.206z"/>
		<path d="M556.75,473.24v-23.18h16.359v23.18H556.75z M573.109,560.239H556.75v-23.179h16.359V560.239z M481.134,362.266h16.358
			v23.178h-16.358V362.266z M481.134,473.24v-23.18h16.358v23.18H481.134z M630.049,344.336v71.373H526.94v-54.531h-29.448h-16.358
			h-28.357v54.531h-27.22v-71.373h-37.08v279.201h37.08V607.66h204.492v15.877h37.081V344.336H630.049z M497.492,560.239h-16.358
			v-23.179h16.358V560.239z M630.049,590.208h-27.492v-54.235h-29.447H556.75h-28.355v54.235h-1.454v-54.235h-29.448h-16.358
			h-28.357v54.235h-27.22v-69.8h204.492V590.208z M630.049,502.958h-27.492v-53.985h-29.447H556.75h-28.355v53.985h-1.454v-53.985
			h-29.448h-16.358h-28.357v53.985h-27.22v-69.799h204.492V502.958z"/>
		<path d="M559.673,475.992v-23.18h16.359v23.18H559.673z M576.032,562.991h-16.359v-23.179h16.359V562.991z M484.056,365.018
			h16.359v23.179h-16.359V365.018z M484.056,475.992v-23.18h16.359v23.18H484.056z M632.972,347.087v71.374H529.862V363.93h-29.447
			h-16.359h-28.356v54.531h-27.22v-71.374h-37.081v279.201h37.081v-15.877h204.492v15.877h37.081V347.087H632.972z M500.415,562.991
			h-16.359v-23.179h16.359V562.991z M632.972,592.961H605.48v-54.236h-29.448h-16.359h-28.356v54.236h-1.454v-54.236h-29.447
			h-16.359h-28.356v54.236h-27.22V523.16h204.492V592.961z M632.972,505.71H605.48v-53.985h-29.448h-16.359h-28.356v53.985h-1.454
			v-53.985h-29.447h-16.359h-28.356v53.985h-27.22v-69.798h204.492V505.71z"/>
		<path d="M562.596,478.744v-23.179h16.359v23.179H562.596z M578.955,565.743h-16.359v-23.179h16.359V565.743z M486.979,367.77
			h16.359v23.178h-16.359V367.77z M486.979,478.744v-23.179h16.359v23.179H486.979z M635.895,349.839v71.374H532.785v-54.531
			h-29.447h-16.359h-28.356v54.531h-27.22v-71.374h-37.081v279.202h37.081v-15.877h204.492v15.877h37.081V349.839H635.895z
			 M503.338,565.743h-16.359v-23.179h16.359V565.743z M635.895,595.712h-27.492v-54.235h-29.447h-16.359h-28.356v54.235h-1.454
			v-54.235h-29.447h-16.359h-28.356v54.235h-27.22v-69.8h204.492V595.712z M635.895,508.462h-27.492v-53.985h-29.447h-16.359
			h-28.356v53.985h-1.454v-53.985h-29.447h-16.359h-28.356v53.985h-27.22v-69.799h204.492V508.462z"/>
		<path d="M565.519,481.496v-23.18h16.359v23.18H565.519z M581.878,568.496h-16.359v-23.18h16.359V568.496z M489.901,370.521h16.359
			v23.178h-16.359V370.521z M489.901,481.496v-23.18h16.359v23.18H489.901z M638.817,352.591v71.374H535.708v-54.531h-29.447
			h-16.359h-28.356v54.531h-27.221v-71.374h-37.08v279.201h37.08v-15.877h204.493v15.877h37.081V352.591H638.817z M506.261,568.496
			h-16.359v-23.18h16.359V568.496z M638.817,598.465h-27.492v-54.236h-29.447h-16.359h-28.356v54.236h-1.454v-54.236h-29.447
			h-16.359h-28.356v54.236h-27.221v-69.801h204.493V598.465z M638.817,511.214h-27.492v-53.984h-29.447h-16.359h-28.356v53.984
			h-1.454v-53.984h-29.447h-16.359h-28.356v53.984h-27.221v-69.799h204.493V511.214z"/>
		<path d="M568.44,484.248v-23.18h16.36v23.18H568.44z M584.801,571.248h-16.36v-23.179h16.36V571.248z M492.824,373.274h16.359
			v23.178h-16.359V373.274z M492.824,484.248v-23.18h16.359v23.18H492.824z M641.739,355.343v71.374H538.631v-54.53h-29.447h-16.359
			h-28.356v54.53h-27.22v-71.374h-37.081v279.202h37.081v-15.878h204.491v15.878h37.081V355.343H641.739z M509.184,571.248h-16.359
			v-23.179h16.359V571.248z M641.739,601.216h-27.491V546.98h-29.447h-16.36h-28.356v54.235h-1.453V546.98h-29.447h-16.359h-28.356
			v54.235h-27.22v-69.8h204.491V601.216z M641.739,513.966h-27.491V459.98h-29.447h-16.36h-28.356v53.985h-1.453V459.98h-29.447
			h-16.359h-28.356v53.985h-27.22v-69.798h204.491V513.966z"/>
		<path d="M571.363,487v-23.179h16.359V487H571.363z M587.723,574h-16.359v-23.179h16.359V574z M495.746,376.025h16.359v23.178
			h-16.359V376.025z M495.746,487v-23.179h16.359V487H495.746z M644.662,358.095v71.375H541.553v-54.531h-29.447h-16.359H467.39
			v54.531h-27.22v-71.375h-37.08v279.201h37.08V621.42h204.492v15.876h37.082V358.095H644.662z M512.105,574h-16.359v-23.179h16.359
			V574z M644.662,603.969H617.17v-54.235h-29.447h-16.359h-28.356v54.235h-1.454v-54.235h-29.447h-16.359H467.39v54.235h-27.22
			v-69.801h204.492V603.969z M644.662,516.718H617.17v-53.984h-29.447h-16.359h-28.356v53.984h-1.454v-53.984h-29.447h-16.359
			H467.39v53.984h-27.22v-69.799h204.492V516.718z"/>
		<path d="M574.286,489.752v-23.179h16.359v23.179H574.286z M590.646,576.752h-16.359v-23.18h16.359V576.752z M498.669,378.777
			h16.359v23.179h-16.359V378.777z M498.669,489.752v-23.179h16.359v23.179H498.669z M647.585,360.848v71.373H544.476v-54.53
			h-29.447h-16.359h-28.356v54.53h-27.22v-71.373h-37.081v279.201h37.081v-15.878h204.492v15.878h37.081V360.848H647.585z
			 M515.028,576.752h-16.359v-23.18h16.359V576.752z M647.585,606.721h-27.492v-54.235h-29.447h-16.359H545.93v54.235h-1.454
			v-54.235h-29.447h-16.359h-28.356v54.235h-27.22v-69.8h204.492V606.721z M647.585,519.471h-27.492v-53.986h-29.447h-16.359H545.93
			v53.986h-1.454v-53.986h-29.447h-16.359h-28.356v53.986h-27.22v-69.799h204.492V519.471z"/>
		<path d="M577.209,492.504v-23.18h16.359v23.18H577.209z M593.568,579.504h-16.359v-23.179h16.359V579.504z M501.592,381.529
			h16.359v23.179h-16.359V381.529z M501.592,492.504v-23.18h16.359v23.18H501.592z M650.508,363.6v71.374H547.398v-54.531h-29.447
			h-16.359h-28.356v54.531h-27.22V363.6h-37.081v279.201h37.081v-15.877h204.492v15.877h37.081V363.6H650.508z M517.951,579.504
			h-16.359v-23.179h16.359V579.504z M650.508,609.473h-27.492v-54.235h-29.447h-16.359h-28.356v54.235h-1.454v-54.235h-29.447
			h-16.359h-28.356v54.235h-27.22v-69.8h204.492V609.473z M650.508,522.223h-27.492v-53.985h-29.447h-16.359h-28.356v53.985h-1.454
			v-53.985h-29.447h-16.359h-28.356v53.985h-27.22v-69.799h204.492V522.223z"/>
		<path d="M580.132,495.256v-23.179h16.359v23.179H580.132z M596.491,582.256h-16.359v-23.179h16.359V582.256z M504.515,384.281
			h16.359v23.179h-16.359V384.281z M504.515,495.256v-23.179h16.359v23.179H504.515z M653.43,366.352v71.373H550.321v-54.53h-29.447
			h-16.359h-28.356v54.53h-27.221v-71.373h-37.08v279.201h37.08v-15.877H653.43v15.877h37.081V366.352H653.43z M520.874,582.256
			h-16.359v-23.179h16.359V582.256z M653.43,612.225h-27.491v-54.235h-29.447h-16.359h-28.356v54.235h-1.454v-54.235h-29.447
			h-16.359h-28.356v54.235h-27.221v-69.8H653.43V612.225z M653.43,524.975h-27.491v-53.985h-29.447h-16.359h-28.356v53.985h-1.454
			v-53.985h-29.447h-16.359h-28.356v53.985h-27.221v-69.799H653.43V524.975z"/>
		<path d="M583.054,498.008v-23.179h16.36v23.179H583.054z M599.414,585.008h-16.36v-23.179h16.36V585.008z M507.438,387.034h16.359
			v23.178h-16.359V387.034z M507.438,498.008v-23.179h16.359v23.179H507.438z M656.353,369.104v71.374H553.243v-54.531h-29.446
			h-16.359H479.08v54.531h-27.22v-71.374h-37.081v279.201h37.081v-15.877h204.492v15.877h37.081V369.104H656.353z M523.797,585.008
			h-16.359v-23.179h16.359V585.008z M656.353,614.977H628.86v-54.235h-29.446h-16.36h-28.356v54.235h-1.454v-54.235h-29.446h-16.359
			H479.08v54.235h-27.22v-69.8h204.492V614.977z M656.353,527.727H628.86v-53.985h-29.446h-16.36h-28.356v53.985h-1.454v-53.985
			h-29.446h-16.359H479.08v53.985h-27.22v-69.799h204.492V527.727z"/>
		<path d="M585.977,500.76v-23.179h16.359v23.179H585.977z M602.336,587.76h-16.359v-23.179h16.359V587.76z M510.359,389.786h16.359
			v23.178h-16.359V389.786z M510.359,500.76v-23.179h16.359v23.179H510.359z M659.275,371.855v71.373H556.166v-54.53h-29.447
			h-16.359h-28.356v54.53h-27.22v-71.373h-37.081v279.201h37.081V635.18h204.492v15.877h37.081V371.855H659.275z M526.719,587.76
			h-16.359v-23.179h16.359V587.76z M659.275,617.729h-27.492v-54.235h-29.447h-16.359H557.62v54.235h-1.454v-54.235h-29.447h-16.359
			h-28.356v54.235h-27.22v-69.8h204.492V617.729z M659.275,530.479h-27.492v-53.985h-29.447h-16.359H557.62v53.985h-1.454v-53.985
			h-29.447h-16.359h-28.356v53.985h-27.22V460.68h204.492V530.479z"/>
		<path d="M588.899,503.512v-23.179h16.359v23.179H588.899z M605.259,590.512h-16.359v-23.179h16.359V590.512z M513.282,392.538
			h16.359v23.178h-16.359V392.538z M513.282,503.512v-23.179h16.359v23.179H513.282z M662.198,374.607v71.374H559.089V391.45
			h-29.447h-16.359h-28.356v54.531h-27.22v-71.374h-37.081v279.201h37.081v-15.877h204.492v15.877h37.081V374.607H662.198z
			 M529.642,590.512h-16.359v-23.179h16.359V590.512z M662.198,620.48h-27.492v-54.235h-29.447h-16.359h-28.356v54.235h-1.454
			v-54.235h-29.447h-16.359h-28.356v54.235h-27.22v-69.8h204.492V620.48z M662.198,533.23h-27.492v-53.985h-29.447h-16.359h-28.356
			v53.985h-1.454v-53.985h-29.447h-16.359h-28.356v53.985h-27.22v-69.799h204.492V533.23z"/>
		<path d="M591.822,506.264v-23.179h16.359v23.179H591.822z M608.182,593.264h-16.359v-23.179h16.359V593.264z M516.205,395.29
			h16.359v23.178h-16.359V395.29z M516.205,506.264v-23.179h16.359v23.179H516.205z M665.121,377.359v71.374H562.012v-54.531
			h-29.447h-16.359h-28.356v54.531h-27.22v-71.374h-37.081v279.201h37.081v-15.877h204.492v15.877h37.081V377.359H665.121z
			 M532.564,593.264h-16.359v-23.179h16.359V593.264z M665.121,623.232h-27.492v-54.235h-29.447h-16.359h-28.356v54.235h-1.454
			v-54.235h-29.447h-16.359h-28.356v54.235h-27.22v-69.8h204.492V623.232z M665.121,535.982h-27.492v-53.985h-29.447h-16.359
			h-28.356v53.985h-1.454v-53.985h-29.447h-16.359h-28.356v53.985h-27.22v-69.799h204.492V535.982z"/>
		<path d="M594.745,509.016v-23.179h16.358v23.179H594.745z M611.104,596.016h-16.358v-23.179h16.358V596.016z M519.127,398.042
			h16.359v23.178h-16.359V398.042z M519.127,509.016v-23.179h16.359v23.179H519.127z M668.043,380.111v71.374H564.935v-54.531
			h-29.448h-16.359h-28.356v54.531h-27.219v-71.374h-37.081v279.201h37.081v-15.877h204.491v15.877h37.082V380.111H668.043z
			 M535.486,596.016h-16.359v-23.179h16.359V596.016z M668.043,625.984h-27.492v-54.235h-29.447h-16.358h-28.356v54.235h-1.454
			v-54.235h-29.448h-16.359h-28.356v54.235h-27.219v-69.8h204.491V625.984z M668.043,538.734h-27.492v-53.985h-29.447h-16.358
			h-28.356v53.985h-1.454v-53.985h-29.448h-16.359h-28.356v53.985h-27.219v-69.799h204.491V538.734z"/>
		<path d="M597.668,511.768v-23.179h16.358v23.179H597.668z M614.026,598.768h-16.358v-23.179h16.358V598.768z M522.05,400.794
			h16.359v23.178H522.05V400.794z M522.05,511.768v-23.179h16.359v23.179H522.05z M670.966,382.863v71.374H567.856v-54.531h-29.447
			H522.05h-28.356v54.531h-27.22v-71.374h-37.081v279.201h37.081v-15.877h204.492v15.877h37.081V382.863H670.966z M538.409,598.768
			H522.05v-23.179h16.359V598.768z M670.966,628.736h-27.492v-54.235h-29.447h-16.358h-28.357v54.235h-1.454v-54.235h-29.447H522.05
			h-28.356v54.235h-27.22v-69.8h204.492V628.736z M670.966,541.486h-27.492v-53.985h-29.447h-16.358h-28.357v53.985h-1.454v-53.985
			h-29.447H522.05h-28.356v53.985h-27.22v-69.799h204.492V541.486z"/>
		<path d="M600.59,514.52v-23.179h16.359v23.179H600.59z M616.949,601.52H600.59v-23.179h16.359V601.52z M524.973,403.546h16.359
			v23.178h-16.359V403.546z M524.973,514.52v-23.179h16.359v23.179H524.973z M673.889,385.615v71.374H570.779v-54.531h-29.447
			h-16.359h-28.356v54.531h-27.22v-71.374h-37.081v279.201h37.081v-15.877h204.492v15.877h37.081V385.615H673.889z M541.332,601.52
			h-16.359v-23.179h16.359V601.52z M673.889,631.488h-27.492v-54.235h-29.447H600.59h-28.356v54.235h-1.454v-54.235h-29.447h-16.359
			h-28.356v54.235h-27.22v-69.8h204.492V631.488z M673.889,544.238h-27.492v-53.985h-29.447H600.59h-28.356v53.985h-1.454v-53.985
			h-29.447h-16.359h-28.356v53.985h-27.22v-69.799h204.492V544.238z"/>
		<path d="M603.513,517.271v-23.179h16.359v23.179H603.513z M619.872,604.271h-16.359v-23.179h16.359V604.271z M527.896,406.298
			h16.359v23.179h-16.359V406.298z M527.896,517.271v-23.179h16.359v23.179H527.896z M676.812,388.367v71.374H573.702V405.21
			h-29.447h-16.359h-28.356v54.531h-27.22v-71.374h-37.081v279.201h37.081v-15.877h204.492v15.877h37.081V388.367H676.812z
			 M544.255,604.271h-16.359v-23.179h16.359V604.271z M676.812,634.24h-27.492v-54.235h-29.447h-16.359h-28.356v54.235h-1.454
			v-54.235h-29.447h-16.359h-28.356v54.235h-27.22v-69.8h204.492V634.24z M676.812,546.99h-27.492v-53.985h-29.447h-16.359h-28.356
			v53.985h-1.454v-53.985h-29.447h-16.359h-28.356v53.985h-27.22v-69.799h204.492V546.99z"/>
		<path d="M606.436,520.023v-23.179h16.358v23.179H606.436z M622.794,607.023h-16.358v-23.179h16.358V607.023z M530.818,409.05
			h16.358v23.178h-16.358V409.05z M530.818,520.023v-23.179h16.358v23.179H530.818z M679.734,391.119v71.374h-103.11v-54.531
			h-29.447h-16.358h-28.356v54.531h-27.22v-71.374H438.16V670.32h37.082v-15.877h204.492v15.877h37.081V391.119H679.734z
			 M547.177,607.023h-16.358v-23.179h16.358V607.023z M679.734,636.992h-27.493v-54.235h-29.447h-16.358h-28.356v54.235h-1.455
			v-54.235h-29.447h-16.358h-28.356v54.235h-27.22v-69.8h204.492V636.992z M679.734,549.742h-27.493v-53.985h-29.447h-16.358
			h-28.356v53.985h-1.455v-53.985h-29.447h-16.358h-28.356v53.985h-27.22v-69.799h204.492V549.742z"/>
		<path d="M609.357,522.775v-23.179h16.359v23.179H609.357z M625.717,609.775h-16.359v-23.179h16.359V609.775z M533.74,411.802
			H550.1v23.178H533.74V411.802z M533.74,522.775v-23.179H550.1v23.179H533.74z M682.656,393.871v71.374H579.547v-54.531H550.1
			H533.74h-28.356v54.531h-27.22v-71.374h-37.081v279.201h37.081v-15.877h204.492v15.877h37.081V393.871H682.656z M550.1,609.775
			H533.74v-23.179H550.1V609.775z M682.656,639.744h-27.492v-54.235h-29.447h-16.359h-28.356v54.235h-1.454v-54.235H550.1H533.74
			h-28.356v54.235h-27.22v-69.8h204.492V639.744z M682.656,552.494h-27.492v-53.985h-29.447h-16.359h-28.356v53.985h-1.454v-53.985
			H550.1H533.74h-28.356v53.985h-27.22v-69.799h204.492V552.494z"/>
		<path d="M612.28,525.527V502.35h16.359v23.178H612.28z M628.64,612.527H612.28v-23.179h16.359V612.527z M536.663,414.554h16.359
			v23.178h-16.359V414.554z M536.663,525.527V502.35h16.359v23.178H536.663z M685.579,396.623v71.374H582.47v-54.531h-29.447
			h-16.359h-28.356v54.531h-27.22v-71.374h-37.081v279.202h37.081v-15.878h204.492v15.878h37.081V396.623H685.579z M553.022,612.527
			h-16.359v-23.179h16.359V612.527z M685.579,642.496h-27.492v-54.235H628.64H612.28h-28.356v54.235h-1.454v-54.235h-29.447h-16.359
			h-28.356v54.235h-27.22v-69.8h204.492V642.496z M685.579,555.246h-27.492v-53.985H628.64H612.28h-28.356v53.985h-1.454v-53.985
			h-29.447h-16.359h-28.356v53.985h-27.22v-69.799h204.492V555.246z"/>
		<path d="M615.203,528.279v-23.179h16.359v23.179H615.203z M631.563,615.279h-16.359v-23.179h16.359V615.279z M539.586,417.306
			h16.359v23.178h-16.359V417.306z M539.586,528.279v-23.179h16.359v23.179H539.586z M688.502,399.375v71.375H585.393v-54.532
			h-29.447h-16.359h-28.356v54.532h-27.22v-71.375h-37.081v279.201h37.081V662.7h204.492v15.876h37.081V399.375H688.502z
			 M555.945,615.279h-16.359v-23.179h16.359V615.279z M688.502,645.248H661.01v-54.235h-29.447h-16.359h-28.356v54.235h-1.454
			v-54.235h-29.447h-16.359h-28.356v54.235h-27.22v-69.8h204.492V645.248z M688.502,557.998H661.01v-53.984h-29.447h-16.359h-28.356
			v53.984h-1.454v-53.984h-29.447h-16.359h-28.356v53.984h-27.22v-69.799h204.492V557.998z"/>
		<path d="M618.125,531.031v-23.179h16.36v23.179H618.125z M634.485,618.031h-16.36v-23.178h16.36V618.031z M542.508,420.058h16.36
			v23.179h-16.36V420.058z M542.508,531.031v-23.179h16.36v23.179H542.508z M691.425,402.128v71.373H588.315V418.97h-29.447h-16.36
			h-28.355v54.531h-27.221v-71.373h-37.081v279.201h37.081v-15.878h204.493v15.878h37.081V402.128H691.425z M558.868,618.031h-16.36
			v-23.178h16.36V618.031z M691.425,648h-27.492v-54.234h-29.447h-16.36H589.77V648h-1.454v-54.234h-29.447h-16.36h-28.355V648
			h-27.221v-69.799h204.493V648z M691.425,560.75h-27.492v-53.985h-29.447h-16.36H589.77v53.985h-1.454v-53.985h-29.447h-16.36
			h-28.355v53.985h-27.221v-69.799h204.493V560.75z"/>
		<path d="M621.048,533.783v-23.178h16.36v23.178H621.048z M637.408,620.784h-16.36v-23.18h16.36V620.784z M545.431,422.811h16.359
			v23.177h-16.359V422.811z M545.431,533.783v-23.178h16.359v23.178H545.431z M694.348,404.88v71.374h-103.11v-54.532H561.79
			h-16.359h-28.356v54.532h-27.219V404.88h-37.082v279.2h37.082v-15.876h204.492v15.876h37.08v-279.2H694.348z M561.79,620.784
			h-16.359v-23.18h16.359V620.784z M694.348,650.753h-27.493v-54.235h-29.446h-16.36h-28.356v54.235h-1.454v-54.235H561.79h-16.359
			h-28.356v54.235h-27.219v-69.8h204.492V650.753z M694.348,563.503h-27.493v-53.985h-29.446h-16.36h-28.356v53.985h-1.454v-53.985
			H561.79h-16.359h-28.356v53.985h-27.219v-69.799h204.492V563.503z"/>
		<path d="M623.971,536.535v-23.178h16.359v23.178H623.971z M640.33,623.535h-16.359v-23.179h16.359V623.535z M548.354,425.563
			h16.359v23.178h-16.359V425.563z M548.354,536.535v-23.178h16.359v23.178H548.354z M697.27,407.632v71.373H594.16v-54.531h-29.447
			h-16.359h-28.356v54.531h-27.22v-71.373h-37.081v279.201h37.081v-15.878H697.27v15.878h37.081V407.632H697.27z M564.713,623.535
			h-16.359v-23.179h16.359V623.535z M697.27,653.504h-27.492V599.27H640.33h-16.359h-28.356v54.234h-1.454V599.27h-29.447h-16.359
			h-28.356v54.234h-27.22v-69.799H697.27V653.504z M697.27,566.255h-27.492v-53.986H640.33h-16.359h-28.356v53.986h-1.454v-53.986
			h-29.447h-16.359h-28.356v53.986h-27.22v-69.8H697.27V566.255z"/>
		<path d="M626.894,539.287v-23.179h16.359v23.179H626.894z M643.253,626.288h-16.359v-23.179h16.359V626.288z M551.276,428.314
			h16.359v23.178h-16.359V428.314z M551.276,539.287v-23.179h16.359v23.179H551.276z M700.192,410.384v71.374H597.083v-54.532
			h-29.447h-16.359H522.92v54.532H495.7v-71.374h-37.081v279.2H495.7v-15.877h204.492v15.877h37.081v-279.2H700.192z
			 M567.636,626.288h-16.359v-23.179h16.359V626.288z M700.192,656.257H672.7v-54.235h-29.447h-16.359h-28.356v54.235h-1.454
			v-54.235h-29.447h-16.359H522.92v54.235H495.7v-69.8h204.492V656.257z M700.192,569.007H672.7v-53.985h-29.447h-16.359h-28.356
			v53.985h-1.454v-53.985h-29.447h-16.359H522.92v53.985H495.7v-69.799h204.492V569.007z"/>
		<path d="M629.815,542.039v-23.178h16.36v23.178H629.815z M646.176,629.039h-16.36v-23.178h16.36V629.039z M554.199,431.066h16.359
			v23.177h-16.359V431.066z M554.199,542.039v-23.178h16.359v23.178H554.199z M703.115,413.136v71.373H600.006v-54.531h-29.447
			h-16.359h-28.356v54.531h-27.22v-71.373h-37.082v279.201h37.082V676.46h204.492v15.877h37.081V413.136H703.115z M570.559,629.039
			h-16.359v-23.178h16.359V629.039z M703.115,659.008h-27.492v-54.235h-29.447h-16.36H601.46v54.235h-1.454v-54.235h-29.447h-16.359
			h-28.356v54.235h-27.22v-69.799h204.492V659.008z M703.115,571.759h-27.492v-53.986h-29.447h-16.36H601.46v53.986h-1.454v-53.986
			h-29.447h-16.359h-28.356v53.986h-27.22V501.96h204.492V571.759z"/>
		<path d="M632.738,544.791v-23.178h16.359v23.178H632.738z M649.098,631.792h-16.359v-23.18h16.359V631.792z M557.122,433.818
			h16.358v23.178h-16.358V433.818z M557.122,544.791v-23.178h16.358v23.178H557.122z M706.038,415.888v71.374H602.929v-54.532
			H573.48h-16.358h-28.357v54.532h-27.22v-71.374h-37.081v279.2h37.081v-15.876h204.493v15.876h37.08v-279.2H706.038z
			 M573.48,631.792h-16.358v-23.18h16.358V631.792z M706.038,661.76h-27.493v-54.235h-29.447h-16.359h-28.355v54.235h-1.454v-54.235
			H573.48h-16.358h-28.357v54.235h-27.22v-69.8h204.493V661.76z M706.038,574.511h-27.493v-53.985h-29.447h-16.359h-28.355v53.985
			h-1.454v-53.985H573.48h-16.358h-28.357v53.985h-27.22v-69.8h204.493V574.511z"/>
		<path d="M635.661,547.543v-23.178h16.359v23.178H635.661z M652.021,634.544h-16.359v-23.179h16.359V634.544z M560.044,436.57
			h16.359v23.178h-16.359V436.57z M560.044,547.543v-23.178h16.359v23.178H560.044z M708.96,418.64v71.374H605.852v-54.531h-29.448
			h-16.359h-28.356v54.531h-27.22V418.64h-37.081v279.201h37.081v-15.877H708.96v15.877h37.081V418.64H708.96z M576.403,634.544
			h-16.359v-23.179h16.359V634.544z M708.96,664.513h-27.492v-54.235h-29.447h-16.359h-28.356v54.235h-1.453v-54.235h-29.448
			h-16.359h-28.356v54.235h-27.22v-69.8H708.96V664.513z M708.96,577.263h-27.492v-53.985h-29.447h-16.359h-28.356v53.985h-1.453
			v-53.985h-29.448h-16.359h-28.356v53.985h-27.22v-69.799H708.96V577.263z"/>
		<path d="M638.584,550.296v-23.18h16.359v23.18H638.584z M654.943,637.296h-16.359v-23.18h16.359V637.296z M562.967,439.322h16.359
			V462.5h-16.359V439.322z M562.967,550.296v-23.18h16.359v23.18H562.967z M711.883,421.392v71.374H608.773v-54.531h-29.447h-16.359
			H534.61v54.531h-27.22v-71.374H470.31v279.201h37.081v-15.877h204.492v15.877h37.08V421.392H711.883z M579.326,637.296h-16.359
			v-23.18h16.359V637.296z M711.883,667.265h-27.492v-54.235h-29.447h-16.359h-28.356v54.235h-1.454v-54.235h-29.447h-16.359H534.61
			v54.235h-27.22v-69.8h204.492V667.265z M711.883,580.015h-27.492v-53.985h-29.447h-16.359h-28.356v53.985h-1.454v-53.985h-29.447
			h-16.359H534.61v53.985h-27.22v-69.799h204.492V580.015z"/>
		<path d="M641.506,553.048v-23.18h16.359v23.18H641.506z M657.865,640.048h-16.359v-23.18h16.359V640.048z M565.89,442.074h16.359
			v23.178H565.89V442.074z M565.89,553.048v-23.18h16.359v23.18H565.89z M714.806,424.144v71.374H611.696v-54.531h-29.447H565.89
			h-28.356v54.531h-27.22v-71.374h-37.081v279.201h37.081v-15.877h204.492v15.877h37.081V424.144H714.806z M582.249,640.048H565.89
			v-23.18h16.359V640.048z M714.806,670.017h-27.492v-54.235h-29.448h-16.359H613.15v54.235h-1.454v-54.235h-29.447H565.89h-28.356
			v54.235h-27.22v-69.8h204.492V670.017z M714.806,582.766h-27.492v-53.984h-29.448h-16.359H613.15v53.984h-1.454v-53.984h-29.447
			H565.89h-28.356v53.984h-27.22v-69.798h204.492V582.766z"/>
		<path d="M644.429,555.8v-23.179h16.359V555.8H644.429z M660.788,642.799h-16.359v-23.178h16.359V642.799z M568.812,444.826h16.359
			v23.178h-16.359V444.826z M568.812,555.8v-23.179h16.359V555.8H568.812z M717.728,426.896v71.373H614.619v-54.53h-29.448h-16.359
			h-28.355v54.53h-27.22v-71.373h-37.082v279.2h37.082V690.22h204.491v15.876h37.082v-279.2H717.728z M585.171,642.799h-16.359
			v-23.178h16.359V642.799z M717.728,672.768h-27.491v-54.234h-29.448h-16.359h-28.355v54.234h-1.454v-54.234h-29.448h-16.359
			h-28.355v54.234h-27.22v-69.799h204.491V672.768z M717.728,585.519h-27.491v-53.986h-29.448h-16.359h-28.355v53.986h-1.454
			v-53.986h-29.448h-16.359h-28.355v53.986h-27.22V515.72h204.491V585.519z"/>
		<path d="M647.352,558.552v-23.179h16.359v23.179H647.352z M663.711,645.552h-16.359v-23.179h16.359V645.552z M571.735,447.578
			h16.359v23.178h-16.359V447.578z M571.735,558.552v-23.179h16.359v23.179H571.735z M720.651,429.647v71.374h-103.11V446.49
			h-29.446h-16.359h-28.357v54.531h-27.22v-71.374h-37.08v279.201h37.08v-15.877h204.493v15.877h37.08V429.647H720.651z
			 M588.095,645.552h-16.359v-23.179h16.359V645.552z M720.651,675.521h-27.493v-54.235h-29.447h-16.359h-28.356v54.235h-1.454
			v-54.235h-29.446h-16.359h-28.357v54.235h-27.22v-69.8h204.493V675.521z M720.651,588.27h-27.493v-53.984h-29.447h-16.359h-28.356
			v53.984h-1.454v-53.984h-29.446h-16.359h-28.357v53.984h-27.22v-69.798h204.493V588.27z"/>
		<path d="M650.274,561.304v-23.179h16.359v23.179H650.274z M666.634,648.304h-16.359v-23.179h16.359V648.304z M574.657,450.33
			h16.359v23.178h-16.359V450.33z M574.657,561.304v-23.179h16.359v23.179H574.657z M723.573,432.399v71.374H620.464v-54.531
			h-29.447h-16.359h-28.356v54.531h-27.22v-71.374H482v279.201h37.081v-15.877h204.492v15.877h37.081V432.399H723.573z
			 M591.017,648.304h-16.359v-23.179h16.359V648.304z M723.573,678.272h-27.492v-54.235h-29.447h-16.359h-28.356v54.235h-1.454
			v-54.235h-29.447h-16.359h-28.356v54.235h-27.22v-69.8h204.492V678.272z M723.573,591.022h-27.492v-53.985h-29.447h-16.359
			h-28.356v53.985h-1.454v-53.985h-29.447h-16.359h-28.356v53.985h-27.22v-69.799h204.492V591.022z"/>
	</g>
</g>
<path fill="#FFFFFF" d="M358.246,88.399v71.374H255.137v-54.531h-29.447H209.33h-28.356v54.531h-27.22V88.399h-37.081v279.201
	h37.081v-15.877h204.492v15.877h37.081V88.399H358.246z M209.33,106.33h16.359v23.179H209.33V106.33z M225.689,304.304H209.33
	v-23.179h16.359V304.304z M301.307,304.304h-16.359v-23.179h16.359V304.304z M358.246,334.272h-27.492v-54.235h-29.447h-16.359
	h-28.356v54.235h-1.454v-54.235h-29.447H209.33h-28.356v54.235h-27.22v-69.8h204.492V334.272z M209.33,217.304v-23.179h16.359
	v23.179H209.33z M284.947,217.304v-23.179h16.359v23.179H284.947z M358.246,247.022h-27.492v-53.985h-29.447h-16.359h-28.356v53.985
	h-1.454v-53.985h-29.447H209.33h-28.356v53.985h-27.22v-69.799h204.492V247.022z"/>
<text transform="matrix(1 0 0 1 151.0415 429)" display="none" fill="#4A7BBE" font-family="'MyriadPro-Bold'" font-size="40">INVENTORY</text>
<path opacity="0.5" d="M43.82,404.665c8.991,36.914,42.253,64.324,81.935,64.324h260.49c39.682,0,72.944-27.41,81.935-64.324H43.82z
	"/>
<g>
	<path fill="#FFFFFF" d="M183.851,424.781V445h-4.59v-20.219H183.851z"/>
	<path fill="#FFFFFF" d="M187.811,445v-20.219h5.34l4.2,7.409c1.2,2.13,2.4,4.649,3.3,6.93h0.09c-0.3-2.67-0.39-5.399-0.39-8.43
		v-5.909h4.2V445h-4.8l-4.32-7.8c-1.2-2.16-2.52-4.77-3.51-7.14l-0.09,0.03c0.12,2.67,0.18,5.52,0.18,8.819V445H187.811z"/>
	<path fill="#FFFFFF" d="M213.28,445l-6.479-20.219h5.01l2.46,8.549c0.69,2.4,1.32,4.71,1.8,7.23h0.09
		c0.51-2.431,1.14-4.83,1.83-7.14l2.58-8.64h4.86L218.62,445H213.28z"/>
	<path fill="#FFFFFF" d="M239.62,436.45h-7.439v4.8h8.31V445H227.59v-20.219h12.479v3.749h-7.89v4.2h7.439V436.45z"/>
	<path fill="#FFFFFF" d="M243.61,445v-20.219h5.34l4.2,7.409c1.2,2.13,2.399,4.649,3.3,6.93h0.09c-0.3-2.67-0.39-5.399-0.39-8.43
		v-5.909h4.2V445h-4.801l-4.319-7.8c-1.2-2.16-2.52-4.77-3.51-7.14l-0.09,0.03c0.12,2.67,0.18,5.52,0.18,8.819V445H243.61z"/>
	<path fill="#FFFFFF" d="M268.21,428.621h-5.43v-3.84h15.539v3.84h-5.52V445h-4.59V428.621z"/>
	<path fill="#FFFFFF" d="M298.389,434.681c0,6.63-4.02,10.649-9.93,10.649c-6,0-9.51-4.53-9.51-10.29
		c0-6.06,3.87-10.589,9.84-10.589C294.999,424.451,298.389,429.101,298.389,434.681z M283.779,434.95c0,3.96,1.859,6.75,4.92,6.75
		c3.09,0,4.859-2.94,4.859-6.87c0-3.63-1.74-6.749-4.89-6.749C285.579,428.081,283.779,431.021,283.779,434.95z"/>
	<path fill="#FFFFFF" d="M301.389,425.051c1.471-0.24,3.66-0.42,6.09-0.42c3,0,5.101,0.45,6.54,1.59c1.2,0.96,1.86,2.37,1.86,4.229
		c0,2.58-1.83,4.351-3.57,4.98v0.09c1.41,0.57,2.19,1.92,2.7,3.779c0.63,2.28,1.26,4.92,1.649,5.7h-4.68
		c-0.33-0.57-0.81-2.22-1.41-4.71c-0.54-2.52-1.409-3.21-3.27-3.239h-1.38V445h-4.53V425.051z M305.919,433.75h1.8
		c2.28,0,3.63-1.14,3.63-2.909c0-1.86-1.26-2.79-3.359-2.82c-1.11,0-1.74,0.09-2.07,0.15V433.75z"/>
	<path fill="#FFFFFF" d="M323.289,445v-8.279l-6.391-11.939h5.221l2.069,4.859c0.63,1.47,1.05,2.55,1.56,3.87h0.061
		c0.45-1.26,0.93-2.431,1.53-3.87l2.039-4.859h5.13l-6.659,11.789V445H323.289z"/>
</g>
</svg>
